<mxfile host="app.diagrams.net" modified="2024-07-02T07:01:47.861Z" agent="Mozilla/5.0 (Windows NT 10.0; Win64; x64) AppleWebKit/537.36 (KHTML, like Gecko) Chrome/124.0.0.0 YaBrowser/24.6.0.0 Safari/537.36" etag="tlF0yA7B4GJ9NYNpa2MG" version="24.6.4" type="device">
  <diagram name="Страница — 1" id="9O3MCu8IIyaXXfVEf-Sb">
    <mxGraphModel dx="2711" dy="2539" grid="1" gridSize="10" guides="1" tooltips="1" connect="1" arrows="1" fold="1" page="1" pageScale="1" pageWidth="1169" pageHeight="1654" math="0" shadow="0">
      <root>
        <mxCell id="0" />
        <mxCell id="1" parent="0" />
        <mxCell id="5E39NEIYK46jYYsnsLjH-1" value="заказ" style="swimlane;fontStyle=0;childLayout=stackLayout;horizontal=1;startSize=30;horizontalStack=0;resizeParent=1;resizeParentMax=0;resizeLast=0;collapsible=1;marginBottom=0;whiteSpace=wrap;html=1;" vertex="1" parent="1">
          <mxGeometry x="1357.92" y="-500" width="140" height="210" as="geometry" />
        </mxCell>
        <mxCell id="5E39NEIYK46jYYsnsLjH-2" value="id заказа" style="text;strokeColor=none;fillColor=none;align=left;verticalAlign=middle;spacingLeft=4;spacingRight=4;overflow=hidden;points=[[0,0.5],[1,0.5]];portConstraint=eastwest;rotatable=0;whiteSpace=wrap;html=1;" vertex="1" parent="5E39NEIYK46jYYsnsLjH-1">
          <mxGeometry y="30" width="140" height="30" as="geometry" />
        </mxCell>
        <mxCell id="5E39NEIYK46jYYsnsLjH-3" value="id товара" style="text;strokeColor=none;fillColor=none;align=left;verticalAlign=middle;spacingLeft=4;spacingRight=4;overflow=hidden;points=[[0,0.5],[1,0.5]];portConstraint=eastwest;rotatable=0;whiteSpace=wrap;html=1;" vertex="1" parent="5E39NEIYK46jYYsnsLjH-1">
          <mxGeometry y="60" width="140" height="30" as="geometry" />
        </mxCell>
        <mxCell id="5E39NEIYK46jYYsnsLjH-4" value="id клиента" style="text;strokeColor=none;fillColor=none;align=left;verticalAlign=middle;spacingLeft=4;spacingRight=4;overflow=hidden;points=[[0,0.5],[1,0.5]];portConstraint=eastwest;rotatable=0;whiteSpace=wrap;html=1;" vertex="1" parent="5E39NEIYK46jYYsnsLjH-1">
          <mxGeometry y="90" width="140" height="30" as="geometry" />
        </mxCell>
        <mxCell id="5E39NEIYK46jYYsnsLjH-5" value="id сотрудника" style="text;strokeColor=none;fillColor=none;align=left;verticalAlign=middle;spacingLeft=4;spacingRight=4;overflow=hidden;points=[[0,0.5],[1,0.5]];portConstraint=eastwest;rotatable=0;whiteSpace=wrap;html=1;" vertex="1" parent="5E39NEIYK46jYYsnsLjH-1">
          <mxGeometry y="120" width="140" height="30" as="geometry" />
        </mxCell>
        <mxCell id="5E39NEIYK46jYYsnsLjH-6" value="дата оформления" style="text;strokeColor=none;align=left;fillColor=none;html=1;verticalAlign=middle;whiteSpace=wrap;rounded=0;" vertex="1" parent="5E39NEIYK46jYYsnsLjH-1">
          <mxGeometry y="150" width="140" height="30" as="geometry" />
        </mxCell>
        <mxCell id="5E39NEIYK46jYYsnsLjH-7" value="способ доставки" style="text;strokeColor=none;align=left;fillColor=none;html=1;verticalAlign=middle;whiteSpace=wrap;rounded=0;" vertex="1" parent="5E39NEIYK46jYYsnsLjH-1">
          <mxGeometry y="180" width="140" height="30" as="geometry" />
        </mxCell>
        <mxCell id="5E39NEIYK46jYYsnsLjH-8" value="Клиент" style="swimlane;fontStyle=0;childLayout=stackLayout;horizontal=1;startSize=30;horizontalStack=0;resizeParent=1;resizeParentMax=0;resizeLast=0;collapsible=1;marginBottom=0;whiteSpace=wrap;html=1;" vertex="1" parent="1">
          <mxGeometry x="1613.92" y="-470" width="140" height="180" as="geometry" />
        </mxCell>
        <mxCell id="5E39NEIYK46jYYsnsLjH-9" value="id клиента" style="text;strokeColor=none;fillColor=none;align=left;verticalAlign=middle;spacingLeft=4;spacingRight=4;overflow=hidden;points=[[0,0.5],[1,0.5]];portConstraint=eastwest;rotatable=0;whiteSpace=wrap;html=1;" vertex="1" parent="5E39NEIYK46jYYsnsLjH-8">
          <mxGeometry y="30" width="140" height="30" as="geometry" />
        </mxCell>
        <mxCell id="5E39NEIYK46jYYsnsLjH-10" value="имя" style="text;strokeColor=none;fillColor=none;align=left;verticalAlign=middle;spacingLeft=4;spacingRight=4;overflow=hidden;points=[[0,0.5],[1,0.5]];portConstraint=eastwest;rotatable=0;whiteSpace=wrap;html=1;" vertex="1" parent="5E39NEIYK46jYYsnsLjH-8">
          <mxGeometry y="60" width="140" height="30" as="geometry" />
        </mxCell>
        <mxCell id="5E39NEIYK46jYYsnsLjH-11" value="фамилия" style="text;strokeColor=none;fillColor=none;align=left;verticalAlign=middle;spacingLeft=4;spacingRight=4;overflow=hidden;points=[[0,0.5],[1,0.5]];portConstraint=eastwest;rotatable=0;whiteSpace=wrap;html=1;" vertex="1" parent="5E39NEIYK46jYYsnsLjH-8">
          <mxGeometry y="90" width="140" height="30" as="geometry" />
        </mxCell>
        <mxCell id="5E39NEIYK46jYYsnsLjH-12" value="почта" style="text;strokeColor=none;align=left;fillColor=none;html=1;verticalAlign=middle;whiteSpace=wrap;rounded=0;" vertex="1" parent="5E39NEIYK46jYYsnsLjH-8">
          <mxGeometry y="120" width="140" height="30" as="geometry" />
        </mxCell>
        <mxCell id="5E39NEIYK46jYYsnsLjH-13" value="телефон" style="text;strokeColor=none;fillColor=none;align=left;verticalAlign=middle;spacingLeft=4;spacingRight=4;overflow=hidden;points=[[0,0.5],[1,0.5]];portConstraint=eastwest;rotatable=0;whiteSpace=wrap;html=1;" vertex="1" parent="5E39NEIYK46jYYsnsLjH-8">
          <mxGeometry y="150" width="140" height="30" as="geometry" />
        </mxCell>
        <mxCell id="5E39NEIYK46jYYsnsLjH-14" value="сотрудник" style="swimlane;fontStyle=0;childLayout=stackLayout;horizontal=1;startSize=30;horizontalStack=0;resizeParent=1;resizeParentMax=0;resizeLast=0;collapsible=1;marginBottom=0;whiteSpace=wrap;html=1;" vertex="1" parent="1">
          <mxGeometry x="913.92" y="-310" width="140" height="270" as="geometry" />
        </mxCell>
        <mxCell id="5E39NEIYK46jYYsnsLjH-15" value="id сотрудника" style="text;strokeColor=none;fillColor=none;align=left;verticalAlign=middle;spacingLeft=4;spacingRight=4;overflow=hidden;points=[[0,0.5],[1,0.5]];portConstraint=eastwest;rotatable=0;whiteSpace=wrap;html=1;" vertex="1" parent="5E39NEIYK46jYYsnsLjH-14">
          <mxGeometry y="30" width="140" height="30" as="geometry" />
        </mxCell>
        <mxCell id="5E39NEIYK46jYYsnsLjH-16" value="id комплекс эконом. ПО" style="text;strokeColor=none;align=left;fillColor=none;html=1;verticalAlign=middle;whiteSpace=wrap;rounded=0;" vertex="1" parent="5E39NEIYK46jYYsnsLjH-14">
          <mxGeometry y="60" width="140" height="30" as="geometry" />
        </mxCell>
        <mxCell id="5E39NEIYK46jYYsnsLjH-17" value="id каталога" style="text;strokeColor=none;align=left;fillColor=none;html=1;verticalAlign=middle;whiteSpace=wrap;rounded=0;" vertex="1" parent="5E39NEIYK46jYYsnsLjH-14">
          <mxGeometry y="90" width="140" height="30" as="geometry" />
        </mxCell>
        <mxCell id="5E39NEIYK46jYYsnsLjH-18" value="менеджмент уч. записей" style="text;strokeColor=none;fillColor=none;align=left;verticalAlign=middle;spacingLeft=4;spacingRight=4;overflow=hidden;points=[[0,0.5],[1,0.5]];portConstraint=eastwest;rotatable=0;whiteSpace=wrap;html=1;" vertex="1" parent="5E39NEIYK46jYYsnsLjH-14">
          <mxGeometry y="120" width="140" height="30" as="geometry" />
        </mxCell>
        <mxCell id="5E39NEIYK46jYYsnsLjH-19" value="имя" style="text;strokeColor=none;fillColor=none;align=left;verticalAlign=middle;spacingLeft=4;spacingRight=4;overflow=hidden;points=[[0,0.5],[1,0.5]];portConstraint=eastwest;rotatable=0;whiteSpace=wrap;html=1;" vertex="1" parent="5E39NEIYK46jYYsnsLjH-14">
          <mxGeometry y="150" width="140" height="30" as="geometry" />
        </mxCell>
        <mxCell id="5E39NEIYK46jYYsnsLjH-20" value="фамилия" style="text;strokeColor=none;fillColor=none;align=left;verticalAlign=middle;spacingLeft=4;spacingRight=4;overflow=hidden;points=[[0,0.5],[1,0.5]];portConstraint=eastwest;rotatable=0;whiteSpace=wrap;html=1;" vertex="1" parent="5E39NEIYK46jYYsnsLjH-14">
          <mxGeometry y="180" width="140" height="30" as="geometry" />
        </mxCell>
        <mxCell id="5E39NEIYK46jYYsnsLjH-21" value="номер телефона" style="text;strokeColor=none;align=left;fillColor=none;html=1;verticalAlign=middle;whiteSpace=wrap;rounded=0;" vertex="1" parent="5E39NEIYK46jYYsnsLjH-14">
          <mxGeometry y="210" width="140" height="30" as="geometry" />
        </mxCell>
        <mxCell id="5E39NEIYK46jYYsnsLjH-22" value="должность" style="text;strokeColor=none;align=left;fillColor=none;html=1;verticalAlign=middle;whiteSpace=wrap;rounded=0;" vertex="1" parent="5E39NEIYK46jYYsnsLjH-14">
          <mxGeometry y="240" width="140" height="30" as="geometry" />
        </mxCell>
        <mxCell id="5E39NEIYK46jYYsnsLjH-23" value="содержит" style="edgeStyle=entityRelationEdgeStyle;fontSize=12;html=1;endArrow=oval;startArrow=none;rounded=0;entryX=0;entryY=0.5;entryDx=0;entryDy=0;startFill=0;endFill=1;" edge="1" parent="1" target="5E39NEIYK46jYYsnsLjH-5">
          <mxGeometry width="100" height="100" relative="1" as="geometry">
            <mxPoint x="1263.92" y="-270" as="sourcePoint" />
            <mxPoint x="1486.38" y="-426" as="targetPoint" />
            <Array as="points">
              <mxPoint x="1547.79" y="-507.88" />
              <mxPoint x="1572.8" y="-452.88" />
              <mxPoint x="1532.8" y="-442.88" />
              <mxPoint x="1527.79" y="-527.88" />
              <mxPoint x="1537.79" y="-527.88" />
            </Array>
          </mxGeometry>
        </mxCell>
        <mxCell id="5E39NEIYK46jYYsnsLjH-24" value="админ" style="swimlane;fontStyle=0;childLayout=stackLayout;horizontal=1;startSize=30;horizontalStack=0;resizeParent=1;resizeParentMax=0;resizeLast=0;collapsible=1;marginBottom=0;whiteSpace=wrap;html=1;" vertex="1" parent="1">
          <mxGeometry x="1343.92" y="-240" width="140" height="180" as="geometry" />
        </mxCell>
        <mxCell id="5E39NEIYK46jYYsnsLjH-25" value="id админа" style="text;strokeColor=none;fillColor=none;align=left;verticalAlign=middle;spacingLeft=4;spacingRight=4;overflow=hidden;points=[[0,0.5],[1,0.5]];portConstraint=eastwest;rotatable=0;whiteSpace=wrap;html=1;" vertex="1" parent="5E39NEIYK46jYYsnsLjH-24">
          <mxGeometry y="30" width="140" height="30" as="geometry" />
        </mxCell>
        <mxCell id="5E39NEIYK46jYYsnsLjH-26" value="имя" style="text;strokeColor=none;fillColor=none;align=left;verticalAlign=middle;spacingLeft=4;spacingRight=4;overflow=hidden;points=[[0,0.5],[1,0.5]];portConstraint=eastwest;rotatable=0;whiteSpace=wrap;html=1;" vertex="1" parent="5E39NEIYK46jYYsnsLjH-24">
          <mxGeometry y="60" width="140" height="30" as="geometry" />
        </mxCell>
        <mxCell id="5E39NEIYK46jYYsnsLjH-27" value="фамилия" style="text;strokeColor=none;fillColor=none;align=left;verticalAlign=middle;spacingLeft=4;spacingRight=4;overflow=hidden;points=[[0,0.5],[1,0.5]];portConstraint=eastwest;rotatable=0;whiteSpace=wrap;html=1;" vertex="1" parent="5E39NEIYK46jYYsnsLjH-24">
          <mxGeometry y="90" width="140" height="30" as="geometry" />
        </mxCell>
        <mxCell id="5E39NEIYK46jYYsnsLjH-28" value="номер телефона" style="text;strokeColor=none;align=left;fillColor=none;html=1;verticalAlign=middle;whiteSpace=wrap;rounded=0;" vertex="1" parent="5E39NEIYK46jYYsnsLjH-24">
          <mxGeometry y="120" width="140" height="30" as="geometry" />
        </mxCell>
        <mxCell id="5E39NEIYK46jYYsnsLjH-29" value="должность" style="text;strokeColor=none;align=left;fillColor=none;html=1;verticalAlign=middle;whiteSpace=wrap;rounded=0;" vertex="1" parent="5E39NEIYK46jYYsnsLjH-24">
          <mxGeometry y="150" width="140" height="30" as="geometry" />
        </mxCell>
        <mxCell id="5E39NEIYK46jYYsnsLjH-30" value="каталог" style="swimlane;fontStyle=0;childLayout=stackLayout;horizontal=1;startSize=30;horizontalStack=0;resizeParent=1;resizeParentMax=0;resizeLast=0;collapsible=1;marginBottom=0;whiteSpace=wrap;html=1;" vertex="1" parent="1">
          <mxGeometry x="1123.92" y="-650" width="140" height="120" as="geometry" />
        </mxCell>
        <mxCell id="5E39NEIYK46jYYsnsLjH-31" value="id каталога" style="text;strokeColor=none;fillColor=none;align=left;verticalAlign=middle;spacingLeft=4;spacingRight=4;overflow=hidden;points=[[0,0.5],[1,0.5]];portConstraint=eastwest;rotatable=0;whiteSpace=wrap;html=1;" vertex="1" parent="5E39NEIYK46jYYsnsLjH-30">
          <mxGeometry y="30" width="140" height="30" as="geometry" />
        </mxCell>
        <mxCell id="5E39NEIYK46jYYsnsLjH-32" value="id клиента" style="text;strokeColor=none;fillColor=none;align=left;verticalAlign=middle;spacingLeft=4;spacingRight=4;overflow=hidden;points=[[0,0.5],[1,0.5]];portConstraint=eastwest;rotatable=0;whiteSpace=wrap;html=1;" vertex="1" parent="5E39NEIYK46jYYsnsLjH-30">
          <mxGeometry y="60" width="140" height="30" as="geometry" />
        </mxCell>
        <mxCell id="5E39NEIYK46jYYsnsLjH-33" value="id товара" style="text;strokeColor=none;fillColor=none;align=left;verticalAlign=middle;spacingLeft=4;spacingRight=4;overflow=hidden;points=[[0,0.5],[1,0.5]];portConstraint=eastwest;rotatable=0;whiteSpace=wrap;html=1;" vertex="1" parent="5E39NEIYK46jYYsnsLjH-30">
          <mxGeometry y="90" width="140" height="30" as="geometry" />
        </mxCell>
        <mxCell id="5E39NEIYK46jYYsnsLjH-34" value="товар" style="swimlane;fontStyle=0;childLayout=stackLayout;horizontal=1;startSize=30;horizontalStack=0;resizeParent=1;resizeParentMax=0;resizeLast=0;collapsible=1;marginBottom=0;whiteSpace=wrap;html=1;" vertex="1" parent="1">
          <mxGeometry x="1357.92" y="-670" width="140" height="120" as="geometry" />
        </mxCell>
        <mxCell id="5E39NEIYK46jYYsnsLjH-35" value="id товара" style="text;strokeColor=none;fillColor=none;align=left;verticalAlign=middle;spacingLeft=4;spacingRight=4;overflow=hidden;points=[[0,0.5],[1,0.5]];portConstraint=eastwest;rotatable=0;whiteSpace=wrap;html=1;" vertex="1" parent="5E39NEIYK46jYYsnsLjH-34">
          <mxGeometry y="30" width="140" height="30" as="geometry" />
        </mxCell>
        <mxCell id="5E39NEIYK46jYYsnsLjH-36" value="наличие" style="text;strokeColor=none;fillColor=none;align=left;verticalAlign=middle;spacingLeft=4;spacingRight=4;overflow=hidden;points=[[0,0.5],[1,0.5]];portConstraint=eastwest;rotatable=0;whiteSpace=wrap;html=1;" vertex="1" parent="5E39NEIYK46jYYsnsLjH-34">
          <mxGeometry y="60" width="140" height="30" as="geometry" />
        </mxCell>
        <mxCell id="5E39NEIYK46jYYsnsLjH-37" value="стоимость" style="text;strokeColor=none;fillColor=none;align=left;verticalAlign=middle;spacingLeft=4;spacingRight=4;overflow=hidden;points=[[0,0.5],[1,0.5]];portConstraint=eastwest;rotatable=0;whiteSpace=wrap;html=1;" vertex="1" parent="5E39NEIYK46jYYsnsLjH-34">
          <mxGeometry y="90" width="140" height="30" as="geometry" />
        </mxCell>
        <mxCell id="5E39NEIYK46jYYsnsLjH-38" style="edgeStyle=orthogonalEdgeStyle;rounded=0;orthogonalLoop=1;jettySize=auto;html=1;startArrow=none;startFill=0;endArrow=oval;endFill=1;entryX=1;entryY=0.5;entryDx=0;entryDy=0;" edge="1" parent="1" target="5E39NEIYK46jYYsnsLjH-4">
          <mxGeometry relative="1" as="geometry">
            <mxPoint x="1543.92" y="-425" as="targetPoint" />
            <mxPoint x="1603.92" y="-410" as="sourcePoint" />
            <Array as="points">
              <mxPoint x="1604" y="-420" />
              <mxPoint x="1584" y="-420" />
              <mxPoint x="1584" y="-395" />
            </Array>
          </mxGeometry>
        </mxCell>
        <mxCell id="5E39NEIYK46jYYsnsLjH-39" value="оформляет" style="edgeLabel;html=1;align=center;verticalAlign=middle;resizable=0;points=[];" vertex="1" connectable="0" parent="5E39NEIYK46jYYsnsLjH-38">
          <mxGeometry x="0.338" relative="1" as="geometry">
            <mxPoint as="offset" />
          </mxGeometry>
        </mxCell>
        <mxCell id="5E39NEIYK46jYYsnsLjH-40" value="имеет" style="edgeStyle=orthogonalEdgeStyle;rounded=0;orthogonalLoop=1;jettySize=auto;html=1;exitX=1;exitY=0.5;exitDx=0;exitDy=0;startArrow=none;startFill=0;endArrow=oval;endFill=1;" edge="1" parent="1" source="5E39NEIYK46jYYsnsLjH-3" target="5E39NEIYK46jYYsnsLjH-35">
          <mxGeometry relative="1" as="geometry" />
        </mxCell>
        <mxCell id="5E39NEIYK46jYYsnsLjH-41" value="находится" style="edgeStyle=orthogonalEdgeStyle;rounded=0;orthogonalLoop=1;jettySize=auto;html=1;exitX=1;exitY=0.5;exitDx=0;exitDy=0;entryX=0;entryY=0.5;entryDx=0;entryDy=0;startArrow=none;startFill=0;endArrow=oval;endFill=1;" edge="1" parent="1" source="5E39NEIYK46jYYsnsLjH-31" target="5E39NEIYK46jYYsnsLjH-35">
          <mxGeometry relative="1" as="geometry" />
        </mxCell>
        <mxCell id="5E39NEIYK46jYYsnsLjH-42" style="edgeStyle=orthogonalEdgeStyle;rounded=0;orthogonalLoop=1;jettySize=auto;html=1;exitX=0;exitY=0.5;exitDx=0;exitDy=0;entryX=1;entryY=0;entryDx=0;entryDy=0;startArrow=none;startFill=0;endArrow=oval;endFill=1;" edge="1" parent="1" source="5E39NEIYK46jYYsnsLjH-45" target="5E39NEIYK46jYYsnsLjH-16">
          <mxGeometry relative="1" as="geometry">
            <Array as="points">
              <mxPoint x="1064" y="-440" />
              <mxPoint x="1064" y="-250" />
            </Array>
          </mxGeometry>
        </mxCell>
        <mxCell id="5E39NEIYK46jYYsnsLjH-43" value="вносит изменения" style="edgeLabel;html=1;align=center;verticalAlign=middle;resizable=0;points=[];" vertex="1" connectable="0" parent="5E39NEIYK46jYYsnsLjH-42">
          <mxGeometry x="-0.2573" relative="1" as="geometry">
            <mxPoint as="offset" />
          </mxGeometry>
        </mxCell>
        <mxCell id="5E39NEIYK46jYYsnsLjH-44" value="контент" style="swimlane;fontStyle=0;childLayout=stackLayout;horizontal=1;startSize=30;horizontalStack=0;resizeParent=1;resizeParentMax=0;resizeLast=0;collapsible=1;marginBottom=0;whiteSpace=wrap;html=1;" vertex="1" parent="1">
          <mxGeometry x="1113.92" y="-485" width="140" height="240" as="geometry" />
        </mxCell>
        <mxCell id="5E39NEIYK46jYYsnsLjH-45" value="id контента" style="text;strokeColor=none;fillColor=none;align=left;verticalAlign=middle;spacingLeft=4;spacingRight=4;overflow=hidden;points=[[0,0.5],[1,0.5]];portConstraint=eastwest;rotatable=0;whiteSpace=wrap;html=1;" vertex="1" parent="5E39NEIYK46jYYsnsLjH-44">
          <mxGeometry y="30" width="140" height="30" as="geometry" />
        </mxCell>
        <mxCell id="5E39NEIYK46jYYsnsLjH-46" value="id каталога" style="text;strokeColor=none;fillColor=none;align=left;verticalAlign=middle;spacingLeft=4;spacingRight=4;overflow=hidden;points=[[0,0.5],[1,0.5]];portConstraint=eastwest;rotatable=0;whiteSpace=wrap;html=1;" vertex="1" parent="5E39NEIYK46jYYsnsLjH-44">
          <mxGeometry y="60" width="140" height="30" as="geometry" />
        </mxCell>
        <mxCell id="5E39NEIYK46jYYsnsLjH-47" value="id товара" style="text;strokeColor=none;fillColor=none;align=left;verticalAlign=middle;spacingLeft=4;spacingRight=4;overflow=hidden;points=[[0,0.5],[1,0.5]];portConstraint=eastwest;rotatable=0;whiteSpace=wrap;html=1;" vertex="1" parent="5E39NEIYK46jYYsnsLjH-44">
          <mxGeometry y="90" width="140" height="30" as="geometry" />
        </mxCell>
        <mxCell id="5E39NEIYK46jYYsnsLjH-48" value="нвости" style="text;strokeColor=none;fillColor=none;align=left;verticalAlign=middle;spacingLeft=4;spacingRight=4;overflow=hidden;points=[[0,0.5],[1,0.5]];portConstraint=eastwest;rotatable=0;whiteSpace=wrap;html=1;" vertex="1" parent="5E39NEIYK46jYYsnsLjH-44">
          <mxGeometry y="120" width="140" height="30" as="geometry" />
        </mxCell>
        <mxCell id="5E39NEIYK46jYYsnsLjH-49" value="личный кабинет" style="text;strokeColor=none;fillColor=none;align=left;verticalAlign=middle;spacingLeft=4;spacingRight=4;overflow=hidden;points=[[0,0.5],[1,0.5]];portConstraint=eastwest;rotatable=0;whiteSpace=wrap;html=1;" vertex="1" parent="5E39NEIYK46jYYsnsLjH-44">
          <mxGeometry y="150" width="140" height="30" as="geometry" />
        </mxCell>
        <mxCell id="5E39NEIYK46jYYsnsLjH-50" value="скидки" style="text;strokeColor=none;align=left;fillColor=none;html=1;verticalAlign=middle;whiteSpace=wrap;rounded=0;" vertex="1" parent="5E39NEIYK46jYYsnsLjH-44">
          <mxGeometry y="180" width="140" height="30" as="geometry" />
        </mxCell>
        <mxCell id="5E39NEIYK46jYYsnsLjH-51" value="персоналия" style="text;strokeColor=none;align=left;fillColor=none;html=1;verticalAlign=middle;whiteSpace=wrap;rounded=0;" vertex="1" parent="5E39NEIYK46jYYsnsLjH-44">
          <mxGeometry y="210" width="140" height="30" as="geometry" />
        </mxCell>
        <mxCell id="5E39NEIYK46jYYsnsLjH-52" value="вносит изменения" style="edgeStyle=orthogonalEdgeStyle;rounded=0;orthogonalLoop=1;jettySize=auto;html=1;exitX=0;exitY=0.5;exitDx=0;exitDy=0;entryX=0;entryY=0.5;entryDx=0;entryDy=0;startArrow=oval;startFill=1;endArrow=oval;endFill=1;" edge="1" parent="1" source="5E39NEIYK46jYYsnsLjH-17" target="5E39NEIYK46jYYsnsLjH-31">
          <mxGeometry relative="1" as="geometry" />
        </mxCell>
        <mxCell id="5E39NEIYK46jYYsnsLjH-53" value="выбирает" style="edgeStyle=orthogonalEdgeStyle;rounded=0;orthogonalLoop=1;jettySize=auto;html=1;exitX=0;exitY=0.5;exitDx=0;exitDy=0;entryX=1;entryY=0.5;entryDx=0;entryDy=0;startArrow=oval;startFill=1;endArrow=oval;endFill=1;" edge="1" parent="1" source="5E39NEIYK46jYYsnsLjH-9" target="5E39NEIYK46jYYsnsLjH-35">
          <mxGeometry relative="1" as="geometry">
            <Array as="points">
              <mxPoint x="1584" y="-425" />
              <mxPoint x="1584" y="-625" />
            </Array>
          </mxGeometry>
        </mxCell>
        <mxCell id="5E39NEIYK46jYYsnsLjH-54" style="edgeStyle=orthogonalEdgeStyle;rounded=0;orthogonalLoop=1;jettySize=auto;html=1;exitX=1;exitY=0.5;exitDx=0;exitDy=0;startArrow=none;startFill=0;endArrow=oval;endFill=1;" edge="1" parent="1" source="5E39NEIYK46jYYsnsLjH-46">
          <mxGeometry relative="1" as="geometry">
            <mxPoint x="1283.92" y="-590" as="targetPoint" />
            <Array as="points">
              <mxPoint x="1303.92" y="-410" />
              <mxPoint x="1303.92" y="-575" />
            </Array>
          </mxGeometry>
        </mxCell>
        <mxCell id="5E39NEIYK46jYYsnsLjH-55" value="содержит" style="edgeLabel;html=1;align=center;verticalAlign=middle;resizable=0;points=[];" vertex="1" connectable="0" parent="5E39NEIYK46jYYsnsLjH-54">
          <mxGeometry x="0.2505" y="-1" relative="1" as="geometry">
            <mxPoint y="1" as="offset" />
          </mxGeometry>
        </mxCell>
        <mxCell id="5E39NEIYK46jYYsnsLjH-56" style="edgeStyle=orthogonalEdgeStyle;rounded=0;orthogonalLoop=1;jettySize=auto;html=1;exitX=0;exitY=0.5;exitDx=0;exitDy=0;entryX=1;entryY=0.5;entryDx=0;entryDy=0;endArrow=oval;endFill=1;" edge="1" parent="1" source="5E39NEIYK46jYYsnsLjH-25" target="5E39NEIYK46jYYsnsLjH-18">
          <mxGeometry relative="1" as="geometry" />
        </mxCell>
        <mxCell id="5E39NEIYK46jYYsnsLjH-57" value="отвечает" style="edgeLabel;html=1;align=center;verticalAlign=middle;resizable=0;points=[];" vertex="1" connectable="0" parent="5E39NEIYK46jYYsnsLjH-56">
          <mxGeometry x="0.2229" y="-1" relative="1" as="geometry">
            <mxPoint as="offset" />
          </mxGeometry>
        </mxCell>
        <mxCell id="5E39NEIYK46jYYsnsLjH-58" value="заказ" style="swimlane;fontStyle=0;childLayout=stackLayout;horizontal=1;startSize=30;horizontalStack=0;resizeParent=1;resizeParentMax=0;resizeLast=0;collapsible=1;marginBottom=0;whiteSpace=wrap;html=1;" vertex="1" parent="1">
          <mxGeometry x="378" y="-490" width="140" height="210" as="geometry" />
        </mxCell>
        <mxCell id="5E39NEIYK46jYYsnsLjH-59" value="id заказа" style="text;strokeColor=none;fillColor=none;align=left;verticalAlign=middle;spacingLeft=4;spacingRight=4;overflow=hidden;points=[[0,0.5],[1,0.5]];portConstraint=eastwest;rotatable=0;whiteSpace=wrap;html=1;" vertex="1" parent="5E39NEIYK46jYYsnsLjH-58">
          <mxGeometry y="30" width="140" height="30" as="geometry" />
        </mxCell>
        <mxCell id="5E39NEIYK46jYYsnsLjH-60" value="id товара" style="text;strokeColor=none;fillColor=none;align=left;verticalAlign=middle;spacingLeft=4;spacingRight=4;overflow=hidden;points=[[0,0.5],[1,0.5]];portConstraint=eastwest;rotatable=0;whiteSpace=wrap;html=1;" vertex="1" parent="5E39NEIYK46jYYsnsLjH-58">
          <mxGeometry y="60" width="140" height="30" as="geometry" />
        </mxCell>
        <mxCell id="5E39NEIYK46jYYsnsLjH-61" value="id клиента" style="text;strokeColor=none;fillColor=none;align=left;verticalAlign=middle;spacingLeft=4;spacingRight=4;overflow=hidden;points=[[0,0.5],[1,0.5]];portConstraint=eastwest;rotatable=0;whiteSpace=wrap;html=1;" vertex="1" parent="5E39NEIYK46jYYsnsLjH-58">
          <mxGeometry y="90" width="140" height="30" as="geometry" />
        </mxCell>
        <mxCell id="5E39NEIYK46jYYsnsLjH-62" value="id сотрудника" style="text;strokeColor=none;fillColor=none;align=left;verticalAlign=middle;spacingLeft=4;spacingRight=4;overflow=hidden;points=[[0,0.5],[1,0.5]];portConstraint=eastwest;rotatable=0;whiteSpace=wrap;html=1;" vertex="1" parent="5E39NEIYK46jYYsnsLjH-58">
          <mxGeometry y="120" width="140" height="30" as="geometry" />
        </mxCell>
        <mxCell id="5E39NEIYK46jYYsnsLjH-63" value="дата оформления" style="text;strokeColor=none;align=left;fillColor=none;html=1;verticalAlign=middle;whiteSpace=wrap;rounded=0;" vertex="1" parent="5E39NEIYK46jYYsnsLjH-58">
          <mxGeometry y="150" width="140" height="30" as="geometry" />
        </mxCell>
        <mxCell id="5E39NEIYK46jYYsnsLjH-64" value="способ доставки" style="text;strokeColor=none;align=left;fillColor=none;html=1;verticalAlign=middle;whiteSpace=wrap;rounded=0;" vertex="1" parent="5E39NEIYK46jYYsnsLjH-58">
          <mxGeometry y="180" width="140" height="30" as="geometry" />
        </mxCell>
        <mxCell id="5E39NEIYK46jYYsnsLjH-65" value="Клиент" style="swimlane;fontStyle=0;childLayout=stackLayout;horizontal=1;startSize=30;horizontalStack=0;resizeParent=1;resizeParentMax=0;resizeLast=0;collapsible=1;marginBottom=0;whiteSpace=wrap;html=1;" vertex="1" parent="1">
          <mxGeometry x="634" y="-460" width="140" height="180" as="geometry" />
        </mxCell>
        <mxCell id="5E39NEIYK46jYYsnsLjH-66" value="id клиента" style="text;strokeColor=none;fillColor=none;align=left;verticalAlign=middle;spacingLeft=4;spacingRight=4;overflow=hidden;points=[[0,0.5],[1,0.5]];portConstraint=eastwest;rotatable=0;whiteSpace=wrap;html=1;" vertex="1" parent="5E39NEIYK46jYYsnsLjH-65">
          <mxGeometry y="30" width="140" height="30" as="geometry" />
        </mxCell>
        <mxCell id="5E39NEIYK46jYYsnsLjH-67" value="имя" style="text;strokeColor=none;fillColor=none;align=left;verticalAlign=middle;spacingLeft=4;spacingRight=4;overflow=hidden;points=[[0,0.5],[1,0.5]];portConstraint=eastwest;rotatable=0;whiteSpace=wrap;html=1;" vertex="1" parent="5E39NEIYK46jYYsnsLjH-65">
          <mxGeometry y="60" width="140" height="30" as="geometry" />
        </mxCell>
        <mxCell id="5E39NEIYK46jYYsnsLjH-68" value="фамилия" style="text;strokeColor=none;fillColor=none;align=left;verticalAlign=middle;spacingLeft=4;spacingRight=4;overflow=hidden;points=[[0,0.5],[1,0.5]];portConstraint=eastwest;rotatable=0;whiteSpace=wrap;html=1;" vertex="1" parent="5E39NEIYK46jYYsnsLjH-65">
          <mxGeometry y="90" width="140" height="30" as="geometry" />
        </mxCell>
        <mxCell id="5E39NEIYK46jYYsnsLjH-69" value="почта" style="text;strokeColor=none;align=left;fillColor=none;html=1;verticalAlign=middle;whiteSpace=wrap;rounded=0;" vertex="1" parent="5E39NEIYK46jYYsnsLjH-65">
          <mxGeometry y="120" width="140" height="30" as="geometry" />
        </mxCell>
        <mxCell id="5E39NEIYK46jYYsnsLjH-70" value="телефон" style="text;strokeColor=none;fillColor=none;align=left;verticalAlign=middle;spacingLeft=4;spacingRight=4;overflow=hidden;points=[[0,0.5],[1,0.5]];portConstraint=eastwest;rotatable=0;whiteSpace=wrap;html=1;" vertex="1" parent="5E39NEIYK46jYYsnsLjH-65">
          <mxGeometry y="150" width="140" height="30" as="geometry" />
        </mxCell>
        <mxCell id="5E39NEIYK46jYYsnsLjH-71" value="сотрудник" style="swimlane;fontStyle=0;childLayout=stackLayout;horizontal=1;startSize=30;horizontalStack=0;resizeParent=1;resizeParentMax=0;resizeLast=0;collapsible=1;marginBottom=0;whiteSpace=wrap;html=1;" vertex="1" parent="1">
          <mxGeometry x="-66" y="-300" width="140" height="270" as="geometry" />
        </mxCell>
        <mxCell id="5E39NEIYK46jYYsnsLjH-72" value="id сотрудника" style="text;strokeColor=none;fillColor=none;align=left;verticalAlign=middle;spacingLeft=4;spacingRight=4;overflow=hidden;points=[[0,0.5],[1,0.5]];portConstraint=eastwest;rotatable=0;whiteSpace=wrap;html=1;" vertex="1" parent="5E39NEIYK46jYYsnsLjH-71">
          <mxGeometry y="30" width="140" height="30" as="geometry" />
        </mxCell>
        <mxCell id="5E39NEIYK46jYYsnsLjH-73" value="id комплекс эконом. ПО" style="text;strokeColor=none;align=left;fillColor=none;html=1;verticalAlign=middle;whiteSpace=wrap;rounded=0;" vertex="1" parent="5E39NEIYK46jYYsnsLjH-71">
          <mxGeometry y="60" width="140" height="30" as="geometry" />
        </mxCell>
        <mxCell id="5E39NEIYK46jYYsnsLjH-74" value="id каталога" style="text;strokeColor=none;align=left;fillColor=none;html=1;verticalAlign=middle;whiteSpace=wrap;rounded=0;" vertex="1" parent="5E39NEIYK46jYYsnsLjH-71">
          <mxGeometry y="90" width="140" height="30" as="geometry" />
        </mxCell>
        <mxCell id="5E39NEIYK46jYYsnsLjH-75" value="менеджмент уч. записей" style="text;strokeColor=none;fillColor=none;align=left;verticalAlign=middle;spacingLeft=4;spacingRight=4;overflow=hidden;points=[[0,0.5],[1,0.5]];portConstraint=eastwest;rotatable=0;whiteSpace=wrap;html=1;" vertex="1" parent="5E39NEIYK46jYYsnsLjH-71">
          <mxGeometry y="120" width="140" height="30" as="geometry" />
        </mxCell>
        <mxCell id="5E39NEIYK46jYYsnsLjH-76" value="фамилия" style="text;strokeColor=none;fillColor=none;align=left;verticalAlign=middle;spacingLeft=4;spacingRight=4;overflow=hidden;points=[[0,0.5],[1,0.5]];portConstraint=eastwest;rotatable=0;whiteSpace=wrap;html=1;" vertex="1" parent="5E39NEIYK46jYYsnsLjH-71">
          <mxGeometry y="150" width="140" height="30" as="geometry" />
        </mxCell>
        <mxCell id="5E39NEIYK46jYYsnsLjH-77" value="имя" style="text;strokeColor=none;fillColor=none;align=left;verticalAlign=middle;spacingLeft=4;spacingRight=4;overflow=hidden;points=[[0,0.5],[1,0.5]];portConstraint=eastwest;rotatable=0;whiteSpace=wrap;html=1;" vertex="1" parent="5E39NEIYK46jYYsnsLjH-71">
          <mxGeometry y="180" width="140" height="30" as="geometry" />
        </mxCell>
        <mxCell id="5E39NEIYK46jYYsnsLjH-78" value="номер телефона" style="text;strokeColor=none;align=left;fillColor=none;html=1;verticalAlign=middle;whiteSpace=wrap;rounded=0;" vertex="1" parent="5E39NEIYK46jYYsnsLjH-71">
          <mxGeometry y="210" width="140" height="30" as="geometry" />
        </mxCell>
        <mxCell id="5E39NEIYK46jYYsnsLjH-79" value="должность" style="text;strokeColor=none;align=left;fillColor=none;html=1;verticalAlign=middle;whiteSpace=wrap;rounded=0;" vertex="1" parent="5E39NEIYK46jYYsnsLjH-71">
          <mxGeometry y="240" width="140" height="30" as="geometry" />
        </mxCell>
        <mxCell id="5E39NEIYK46jYYsnsLjH-80" value="" style="edgeStyle=entityRelationEdgeStyle;fontSize=12;html=1;endArrow=ERoneToMany;startArrow=ERmandOne;rounded=0;entryX=0;entryY=0.5;entryDx=0;entryDy=0;" edge="1" parent="1" target="5E39NEIYK46jYYsnsLjH-62">
          <mxGeometry width="100" height="100" relative="1" as="geometry">
            <mxPoint x="284" y="-260" as="sourcePoint" />
            <mxPoint x="506.46000000000004" y="-416" as="targetPoint" />
            <Array as="points">
              <mxPoint x="567.87" y="-497.88" />
              <mxPoint x="592.88" y="-442.88" />
              <mxPoint x="552.88" y="-432.88" />
              <mxPoint x="547.87" y="-517.88" />
              <mxPoint x="557.87" y="-517.88" />
            </Array>
          </mxGeometry>
        </mxCell>
        <mxCell id="5E39NEIYK46jYYsnsLjH-81" value="админ" style="swimlane;fontStyle=0;childLayout=stackLayout;horizontal=1;startSize=30;horizontalStack=0;resizeParent=1;resizeParentMax=0;resizeLast=0;collapsible=1;marginBottom=0;whiteSpace=wrap;html=1;" vertex="1" parent="1">
          <mxGeometry x="364" y="-230" width="140" height="180" as="geometry" />
        </mxCell>
        <mxCell id="5E39NEIYK46jYYsnsLjH-82" value="id админа" style="text;strokeColor=none;fillColor=none;align=left;verticalAlign=middle;spacingLeft=4;spacingRight=4;overflow=hidden;points=[[0,0.5],[1,0.5]];portConstraint=eastwest;rotatable=0;whiteSpace=wrap;html=1;" vertex="1" parent="5E39NEIYK46jYYsnsLjH-81">
          <mxGeometry y="30" width="140" height="30" as="geometry" />
        </mxCell>
        <mxCell id="5E39NEIYK46jYYsnsLjH-83" value="имя" style="text;strokeColor=none;fillColor=none;align=left;verticalAlign=middle;spacingLeft=4;spacingRight=4;overflow=hidden;points=[[0,0.5],[1,0.5]];portConstraint=eastwest;rotatable=0;whiteSpace=wrap;html=1;" vertex="1" parent="5E39NEIYK46jYYsnsLjH-81">
          <mxGeometry y="60" width="140" height="30" as="geometry" />
        </mxCell>
        <mxCell id="5E39NEIYK46jYYsnsLjH-84" value="фамилия" style="text;strokeColor=none;fillColor=none;align=left;verticalAlign=middle;spacingLeft=4;spacingRight=4;overflow=hidden;points=[[0,0.5],[1,0.5]];portConstraint=eastwest;rotatable=0;whiteSpace=wrap;html=1;" vertex="1" parent="5E39NEIYK46jYYsnsLjH-81">
          <mxGeometry y="90" width="140" height="30" as="geometry" />
        </mxCell>
        <mxCell id="5E39NEIYK46jYYsnsLjH-85" value="номер телефона" style="text;strokeColor=none;align=left;fillColor=none;html=1;verticalAlign=middle;whiteSpace=wrap;rounded=0;" vertex="1" parent="5E39NEIYK46jYYsnsLjH-81">
          <mxGeometry y="120" width="140" height="30" as="geometry" />
        </mxCell>
        <mxCell id="5E39NEIYK46jYYsnsLjH-86" value="должность" style="text;strokeColor=none;align=left;fillColor=none;html=1;verticalAlign=middle;whiteSpace=wrap;rounded=0;" vertex="1" parent="5E39NEIYK46jYYsnsLjH-81">
          <mxGeometry y="150" width="140" height="30" as="geometry" />
        </mxCell>
        <mxCell id="5E39NEIYK46jYYsnsLjH-87" value="каталог" style="swimlane;fontStyle=0;childLayout=stackLayout;horizontal=1;startSize=30;horizontalStack=0;resizeParent=1;resizeParentMax=0;resizeLast=0;collapsible=1;marginBottom=0;whiteSpace=wrap;html=1;" vertex="1" parent="1">
          <mxGeometry x="144" y="-640" width="140" height="120" as="geometry" />
        </mxCell>
        <mxCell id="5E39NEIYK46jYYsnsLjH-88" value="id каталога" style="text;strokeColor=none;fillColor=none;align=left;verticalAlign=middle;spacingLeft=4;spacingRight=4;overflow=hidden;points=[[0,0.5],[1,0.5]];portConstraint=eastwest;rotatable=0;whiteSpace=wrap;html=1;" vertex="1" parent="5E39NEIYK46jYYsnsLjH-87">
          <mxGeometry y="30" width="140" height="30" as="geometry" />
        </mxCell>
        <mxCell id="5E39NEIYK46jYYsnsLjH-89" value="id клиента" style="text;strokeColor=none;fillColor=none;align=left;verticalAlign=middle;spacingLeft=4;spacingRight=4;overflow=hidden;points=[[0,0.5],[1,0.5]];portConstraint=eastwest;rotatable=0;whiteSpace=wrap;html=1;" vertex="1" parent="5E39NEIYK46jYYsnsLjH-87">
          <mxGeometry y="60" width="140" height="30" as="geometry" />
        </mxCell>
        <mxCell id="5E39NEIYK46jYYsnsLjH-90" value="id товара" style="text;strokeColor=none;fillColor=none;align=left;verticalAlign=middle;spacingLeft=4;spacingRight=4;overflow=hidden;points=[[0,0.5],[1,0.5]];portConstraint=eastwest;rotatable=0;whiteSpace=wrap;html=1;" vertex="1" parent="5E39NEIYK46jYYsnsLjH-87">
          <mxGeometry y="90" width="140" height="30" as="geometry" />
        </mxCell>
        <mxCell id="5E39NEIYK46jYYsnsLjH-91" value="товар" style="swimlane;fontStyle=0;childLayout=stackLayout;horizontal=1;startSize=30;horizontalStack=0;resizeParent=1;resizeParentMax=0;resizeLast=0;collapsible=1;marginBottom=0;whiteSpace=wrap;html=1;" vertex="1" parent="1">
          <mxGeometry x="378" y="-660" width="140" height="120" as="geometry" />
        </mxCell>
        <mxCell id="5E39NEIYK46jYYsnsLjH-92" value="id товара" style="text;strokeColor=none;fillColor=none;align=left;verticalAlign=middle;spacingLeft=4;spacingRight=4;overflow=hidden;points=[[0,0.5],[1,0.5]];portConstraint=eastwest;rotatable=0;whiteSpace=wrap;html=1;" vertex="1" parent="5E39NEIYK46jYYsnsLjH-91">
          <mxGeometry y="30" width="140" height="30" as="geometry" />
        </mxCell>
        <mxCell id="5E39NEIYK46jYYsnsLjH-93" value="наличие" style="text;strokeColor=none;fillColor=none;align=left;verticalAlign=middle;spacingLeft=4;spacingRight=4;overflow=hidden;points=[[0,0.5],[1,0.5]];portConstraint=eastwest;rotatable=0;whiteSpace=wrap;html=1;" vertex="1" parent="5E39NEIYK46jYYsnsLjH-91">
          <mxGeometry y="60" width="140" height="30" as="geometry" />
        </mxCell>
        <mxCell id="5E39NEIYK46jYYsnsLjH-94" value="стоимость" style="text;strokeColor=none;fillColor=none;align=left;verticalAlign=middle;spacingLeft=4;spacingRight=4;overflow=hidden;points=[[0,0.5],[1,0.5]];portConstraint=eastwest;rotatable=0;whiteSpace=wrap;html=1;" vertex="1" parent="5E39NEIYK46jYYsnsLjH-91">
          <mxGeometry y="90" width="140" height="30" as="geometry" />
        </mxCell>
        <mxCell id="5E39NEIYK46jYYsnsLjH-95" style="edgeStyle=orthogonalEdgeStyle;rounded=0;orthogonalLoop=1;jettySize=auto;html=1;startArrow=ERmandOne;startFill=0;endArrow=ERmany;endFill=0;entryX=1;entryY=0.5;entryDx=0;entryDy=0;" edge="1" parent="1" target="5E39NEIYK46jYYsnsLjH-61">
          <mxGeometry relative="1" as="geometry">
            <mxPoint x="564" y="-415" as="targetPoint" />
            <mxPoint x="624" y="-400" as="sourcePoint" />
            <Array as="points">
              <mxPoint x="604" y="-415" />
              <mxPoint x="604" y="-385" />
            </Array>
          </mxGeometry>
        </mxCell>
        <mxCell id="5E39NEIYK46jYYsnsLjH-96" style="edgeStyle=orthogonalEdgeStyle;rounded=0;orthogonalLoop=1;jettySize=auto;html=1;exitX=1;exitY=0.5;exitDx=0;exitDy=0;startArrow=ERmandOne;startFill=0;endArrow=ERmany;endFill=0;" edge="1" parent="1" source="5E39NEIYK46jYYsnsLjH-60" target="5E39NEIYK46jYYsnsLjH-92">
          <mxGeometry relative="1" as="geometry" />
        </mxCell>
        <mxCell id="5E39NEIYK46jYYsnsLjH-97" style="edgeStyle=orthogonalEdgeStyle;rounded=0;orthogonalLoop=1;jettySize=auto;html=1;exitX=1;exitY=0.5;exitDx=0;exitDy=0;entryX=0;entryY=0.5;entryDx=0;entryDy=0;startArrow=ERmandOne;startFill=0;endArrow=ERmany;endFill=0;" edge="1" parent="1" source="5E39NEIYK46jYYsnsLjH-88" target="5E39NEIYK46jYYsnsLjH-92">
          <mxGeometry relative="1" as="geometry" />
        </mxCell>
        <mxCell id="5E39NEIYK46jYYsnsLjH-98" style="edgeStyle=orthogonalEdgeStyle;rounded=0;orthogonalLoop=1;jettySize=auto;html=1;exitX=0;exitY=0.5;exitDx=0;exitDy=0;entryX=1;entryY=0;entryDx=0;entryDy=0;startArrow=ERmandOne;startFill=0;endArrow=ERmany;endFill=0;" edge="1" parent="1" source="5E39NEIYK46jYYsnsLjH-100" target="5E39NEIYK46jYYsnsLjH-73">
          <mxGeometry relative="1" as="geometry">
            <Array as="points">
              <mxPoint x="114" y="-430" />
              <mxPoint x="114" y="-240" />
            </Array>
          </mxGeometry>
        </mxCell>
        <mxCell id="5E39NEIYK46jYYsnsLjH-99" value="контент" style="swimlane;fontStyle=0;childLayout=stackLayout;horizontal=1;startSize=30;horizontalStack=0;resizeParent=1;resizeParentMax=0;resizeLast=0;collapsible=1;marginBottom=0;whiteSpace=wrap;html=1;" vertex="1" parent="1">
          <mxGeometry x="134" y="-475" width="140" height="240" as="geometry" />
        </mxCell>
        <mxCell id="5E39NEIYK46jYYsnsLjH-100" value="id контента" style="text;strokeColor=none;fillColor=none;align=left;verticalAlign=middle;spacingLeft=4;spacingRight=4;overflow=hidden;points=[[0,0.5],[1,0.5]];portConstraint=eastwest;rotatable=0;whiteSpace=wrap;html=1;" vertex="1" parent="5E39NEIYK46jYYsnsLjH-99">
          <mxGeometry y="30" width="140" height="30" as="geometry" />
        </mxCell>
        <mxCell id="5E39NEIYK46jYYsnsLjH-101" value="id каталога" style="text;strokeColor=none;fillColor=none;align=left;verticalAlign=middle;spacingLeft=4;spacingRight=4;overflow=hidden;points=[[0,0.5],[1,0.5]];portConstraint=eastwest;rotatable=0;whiteSpace=wrap;html=1;" vertex="1" parent="5E39NEIYK46jYYsnsLjH-99">
          <mxGeometry y="60" width="140" height="30" as="geometry" />
        </mxCell>
        <mxCell id="5E39NEIYK46jYYsnsLjH-102" value="id товара" style="text;strokeColor=none;fillColor=none;align=left;verticalAlign=middle;spacingLeft=4;spacingRight=4;overflow=hidden;points=[[0,0.5],[1,0.5]];portConstraint=eastwest;rotatable=0;whiteSpace=wrap;html=1;" vertex="1" parent="5E39NEIYK46jYYsnsLjH-99">
          <mxGeometry y="90" width="140" height="30" as="geometry" />
        </mxCell>
        <mxCell id="5E39NEIYK46jYYsnsLjH-103" value="нвости" style="text;strokeColor=none;fillColor=none;align=left;verticalAlign=middle;spacingLeft=4;spacingRight=4;overflow=hidden;points=[[0,0.5],[1,0.5]];portConstraint=eastwest;rotatable=0;whiteSpace=wrap;html=1;" vertex="1" parent="5E39NEIYK46jYYsnsLjH-99">
          <mxGeometry y="120" width="140" height="30" as="geometry" />
        </mxCell>
        <mxCell id="5E39NEIYK46jYYsnsLjH-104" value="личный кабинет" style="text;strokeColor=none;fillColor=none;align=left;verticalAlign=middle;spacingLeft=4;spacingRight=4;overflow=hidden;points=[[0,0.5],[1,0.5]];portConstraint=eastwest;rotatable=0;whiteSpace=wrap;html=1;" vertex="1" parent="5E39NEIYK46jYYsnsLjH-99">
          <mxGeometry y="150" width="140" height="30" as="geometry" />
        </mxCell>
        <mxCell id="5E39NEIYK46jYYsnsLjH-105" value="скидки" style="text;strokeColor=none;align=left;fillColor=none;html=1;verticalAlign=middle;whiteSpace=wrap;rounded=0;" vertex="1" parent="5E39NEIYK46jYYsnsLjH-99">
          <mxGeometry y="180" width="140" height="30" as="geometry" />
        </mxCell>
        <mxCell id="5E39NEIYK46jYYsnsLjH-106" value="персоналия" style="text;strokeColor=none;align=left;fillColor=none;html=1;verticalAlign=middle;whiteSpace=wrap;rounded=0;" vertex="1" parent="5E39NEIYK46jYYsnsLjH-99">
          <mxGeometry y="210" width="140" height="30" as="geometry" />
        </mxCell>
        <mxCell id="5E39NEIYK46jYYsnsLjH-107" style="edgeStyle=orthogonalEdgeStyle;rounded=0;orthogonalLoop=1;jettySize=auto;html=1;exitX=0;exitY=0.5;exitDx=0;exitDy=0;entryX=0;entryY=0.5;entryDx=0;entryDy=0;startArrow=ERmany;startFill=0;endArrow=ERmany;endFill=0;" edge="1" parent="1" source="5E39NEIYK46jYYsnsLjH-74" target="5E39NEIYK46jYYsnsLjH-88">
          <mxGeometry relative="1" as="geometry" />
        </mxCell>
        <mxCell id="5E39NEIYK46jYYsnsLjH-108" style="edgeStyle=orthogonalEdgeStyle;rounded=0;orthogonalLoop=1;jettySize=auto;html=1;exitX=0;exitY=0.5;exitDx=0;exitDy=0;entryX=1;entryY=0.5;entryDx=0;entryDy=0;startArrow=ERmany;startFill=0;endArrow=ERmany;endFill=0;" edge="1" parent="1" source="5E39NEIYK46jYYsnsLjH-66" target="5E39NEIYK46jYYsnsLjH-92">
          <mxGeometry relative="1" as="geometry" />
        </mxCell>
        <mxCell id="5E39NEIYK46jYYsnsLjH-109" style="edgeStyle=orthogonalEdgeStyle;rounded=0;orthogonalLoop=1;jettySize=auto;html=1;exitX=1;exitY=0.5;exitDx=0;exitDy=0;startArrow=ERmandOne;startFill=0;endArrow=ERmany;endFill=0;" edge="1" parent="1" source="5E39NEIYK46jYYsnsLjH-101">
          <mxGeometry relative="1" as="geometry">
            <mxPoint x="304" y="-580" as="targetPoint" />
            <Array as="points">
              <mxPoint x="324" y="-400" />
              <mxPoint x="324" y="-565" />
            </Array>
          </mxGeometry>
        </mxCell>
        <mxCell id="5E39NEIYK46jYYsnsLjH-110" style="edgeStyle=orthogonalEdgeStyle;rounded=0;orthogonalLoop=1;jettySize=auto;html=1;exitX=0;exitY=0.5;exitDx=0;exitDy=0;entryX=1;entryY=0.5;entryDx=0;entryDy=0;startArrow=ERmandOne;startFill=0;endArrow=oval;endFill=1;" edge="1" parent="1" source="5E39NEIYK46jYYsnsLjH-82" target="5E39NEIYK46jYYsnsLjH-75">
          <mxGeometry relative="1" as="geometry" />
        </mxCell>
        <mxCell id="5E39NEIYK46jYYsnsLjH-332" value="Клент&lt;br&gt;" style="shape=umlActor;verticalLabelPosition=bottom;verticalAlign=top;html=1;outlineConnect=0;" vertex="1" parent="1">
          <mxGeometry x="975" y="100" width="40" height="70" as="geometry" />
        </mxCell>
        <mxCell id="5E39NEIYK46jYYsnsLjH-333" value="Оформить заказ" style="shape=umlBoundary;whiteSpace=wrap;html=1;" vertex="1" parent="1">
          <mxGeometry x="1095" y="100" width="100" height="80" as="geometry" />
        </mxCell>
        <mxCell id="5E39NEIYK46jYYsnsLjH-334" value="Оплата" style="ellipse;shape=umlControl;whiteSpace=wrap;html=1;" vertex="1" parent="1">
          <mxGeometry x="1273.5" y="100" width="70" height="80" as="geometry" />
        </mxCell>
        <mxCell id="5E39NEIYK46jYYsnsLjH-335" value="Проверка" style="ellipse;shape=umlEntity;whiteSpace=wrap;html=1;" vertex="1" parent="1">
          <mxGeometry x="1425" y="100" width="80" height="80" as="geometry" />
        </mxCell>
        <mxCell id="5E39NEIYK46jYYsnsLjH-336" value="" style="endArrow=none;dashed=1;html=1;rounded=0;entryX=0.479;entryY=1.035;entryDx=0;entryDy=0;entryPerimeter=0;" edge="1" parent="1" source="5E39NEIYK46jYYsnsLjH-346" target="5E39NEIYK46jYYsnsLjH-334">
          <mxGeometry width="50" height="50" relative="1" as="geometry">
            <mxPoint x="1307" y="740" as="sourcePoint" />
            <mxPoint x="1295" y="410" as="targetPoint" />
          </mxGeometry>
        </mxCell>
        <mxCell id="5E39NEIYK46jYYsnsLjH-337" value="" style="endArrow=none;dashed=1;html=1;rounded=0;entryX=0.479;entryY=1.035;entryDx=0;entryDy=0;entryPerimeter=0;" edge="1" parent="1" source="5E39NEIYK46jYYsnsLjH-341">
          <mxGeometry width="50" height="50" relative="1" as="geometry">
            <mxPoint x="1155" y="737" as="sourcePoint" />
            <mxPoint x="1155" y="180" as="targetPoint" />
          </mxGeometry>
        </mxCell>
        <mxCell id="5E39NEIYK46jYYsnsLjH-338" value="" style="endArrow=none;dashed=1;html=1;rounded=0;entryX=0.479;entryY=1.035;entryDx=0;entryDy=0;entryPerimeter=0;" edge="1" parent="1" source="5E39NEIYK46jYYsnsLjH-403">
          <mxGeometry width="50" height="50" relative="1" as="geometry">
            <mxPoint x="1465" y="1200" as="sourcePoint" />
            <mxPoint x="1464.4099999999999" y="180" as="targetPoint" />
          </mxGeometry>
        </mxCell>
        <mxCell id="5E39NEIYK46jYYsnsLjH-339" value="" style="endArrow=none;dashed=1;html=1;rounded=0;entryX=0.479;entryY=1.035;entryDx=0;entryDy=0;entryPerimeter=0;" edge="1" parent="1" source="5E39NEIYK46jYYsnsLjH-343">
          <mxGeometry width="50" height="50" relative="1" as="geometry">
            <mxPoint x="994.4100000000001" y="737" as="sourcePoint" />
            <mxPoint x="994.4100000000001" y="180" as="targetPoint" />
          </mxGeometry>
        </mxCell>
        <mxCell id="5E39NEIYK46jYYsnsLjH-340" value="" style="endArrow=none;dashed=1;html=1;rounded=0;entryX=0.479;entryY=1.035;entryDx=0;entryDy=0;entryPerimeter=0;" edge="1" parent="1" source="5E39NEIYK46jYYsnsLjH-348" target="5E39NEIYK46jYYsnsLjH-341">
          <mxGeometry width="50" height="50" relative="1" as="geometry">
            <mxPoint x="1155" y="737" as="sourcePoint" />
            <mxPoint x="1155" y="180" as="targetPoint" />
          </mxGeometry>
        </mxCell>
        <mxCell id="5E39NEIYK46jYYsnsLjH-341" value="" style="rounded=0;whiteSpace=wrap;html=1;" vertex="1" parent="1">
          <mxGeometry x="1145" y="220" width="20" height="30" as="geometry" />
        </mxCell>
        <mxCell id="5E39NEIYK46jYYsnsLjH-342" value="" style="endArrow=none;dashed=1;html=1;rounded=0;entryX=0.479;entryY=1.035;entryDx=0;entryDy=0;entryPerimeter=0;" edge="1" parent="1" source="5E39NEIYK46jYYsnsLjH-355" target="5E39NEIYK46jYYsnsLjH-343">
          <mxGeometry width="50" height="50" relative="1" as="geometry">
            <mxPoint x="994.4100000000001" y="737" as="sourcePoint" />
            <mxPoint x="994.4100000000001" y="180" as="targetPoint" />
          </mxGeometry>
        </mxCell>
        <mxCell id="5E39NEIYK46jYYsnsLjH-343" value="" style="rounded=0;whiteSpace=wrap;html=1;" vertex="1" parent="1">
          <mxGeometry x="985" y="220" width="20" height="70" as="geometry" />
        </mxCell>
        <mxCell id="5E39NEIYK46jYYsnsLjH-344" value="" style="endArrow=classic;html=1;rounded=0;exitX=1;exitY=0;exitDx=0;exitDy=0;entryX=0;entryY=0;entryDx=0;entryDy=0;" edge="1" parent="1" source="5E39NEIYK46jYYsnsLjH-343" target="5E39NEIYK46jYYsnsLjH-341">
          <mxGeometry width="50" height="50" relative="1" as="geometry">
            <mxPoint x="1245" y="460" as="sourcePoint" />
            <mxPoint x="1295" y="410" as="targetPoint" />
          </mxGeometry>
        </mxCell>
        <mxCell id="5E39NEIYK46jYYsnsLjH-345" value="" style="endArrow=none;dashed=1;html=1;rounded=0;entryX=0.479;entryY=1.035;entryDx=0;entryDy=0;entryPerimeter=0;" edge="1" parent="1" target="5E39NEIYK46jYYsnsLjH-346">
          <mxGeometry width="50" height="50" relative="1" as="geometry">
            <mxPoint x="1308.8566552901023" y="400" as="sourcePoint" />
            <mxPoint x="1307" y="183" as="targetPoint" />
          </mxGeometry>
        </mxCell>
        <mxCell id="5E39NEIYK46jYYsnsLjH-346" value="" style="rounded=0;whiteSpace=wrap;html=1;" vertex="1" parent="1">
          <mxGeometry x="1299" y="260" width="20" height="70" as="geometry" />
        </mxCell>
        <mxCell id="5E39NEIYK46jYYsnsLjH-347" value="" style="endArrow=none;dashed=1;html=1;rounded=0;entryX=0.479;entryY=1.035;entryDx=0;entryDy=0;entryPerimeter=0;" edge="1" parent="1" source="5E39NEIYK46jYYsnsLjH-352" target="5E39NEIYK46jYYsnsLjH-348">
          <mxGeometry width="50" height="50" relative="1" as="geometry">
            <mxPoint x="1155" y="737" as="sourcePoint" />
            <mxPoint x="1155" y="251" as="targetPoint" />
          </mxGeometry>
        </mxCell>
        <mxCell id="5E39NEIYK46jYYsnsLjH-348" value="" style="rounded=0;whiteSpace=wrap;html=1;" vertex="1" parent="1">
          <mxGeometry x="1145" y="260" width="20" height="30" as="geometry" />
        </mxCell>
        <mxCell id="5E39NEIYK46jYYsnsLjH-349" value="" style="endArrow=classic;html=1;rounded=0;entryX=1;entryY=0;entryDx=0;entryDy=0;exitX=0.25;exitY=0;exitDx=0;exitDy=0;" edge="1" parent="1" source="5E39NEIYK46jYYsnsLjH-346" target="5E39NEIYK46jYYsnsLjH-348">
          <mxGeometry width="50" height="50" relative="1" as="geometry">
            <mxPoint x="1295" y="260" as="sourcePoint" />
            <mxPoint x="1155" y="230" as="targetPoint" />
          </mxGeometry>
        </mxCell>
        <mxCell id="5E39NEIYK46jYYsnsLjH-350" value="" style="rounded=0;whiteSpace=wrap;html=1;" vertex="1" parent="1">
          <mxGeometry x="985" y="340" width="20" height="70" as="geometry" />
        </mxCell>
        <mxCell id="5E39NEIYK46jYYsnsLjH-351" value="" style="endArrow=none;dashed=1;html=1;rounded=0;entryX=0.479;entryY=1.035;entryDx=0;entryDy=0;entryPerimeter=0;" edge="1" parent="1" source="5E39NEIYK46jYYsnsLjH-357" target="5E39NEIYK46jYYsnsLjH-352">
          <mxGeometry width="50" height="50" relative="1" as="geometry">
            <mxPoint x="1155" y="737" as="sourcePoint" />
            <mxPoint x="1155" y="291" as="targetPoint" />
          </mxGeometry>
        </mxCell>
        <mxCell id="5E39NEIYK46jYYsnsLjH-352" value="" style="rounded=0;whiteSpace=wrap;html=1;" vertex="1" parent="1">
          <mxGeometry x="1145" y="340" width="20" height="30" as="geometry" />
        </mxCell>
        <mxCell id="5E39NEIYK46jYYsnsLjH-353" value="" style="endArrow=classic;html=1;rounded=0;exitX=1;exitY=0;exitDx=0;exitDy=0;entryX=0;entryY=0;entryDx=0;entryDy=0;" edge="1" parent="1">
          <mxGeometry width="50" height="50" relative="1" as="geometry">
            <mxPoint x="1005" y="340" as="sourcePoint" />
            <mxPoint x="1145" y="340" as="targetPoint" />
          </mxGeometry>
        </mxCell>
        <mxCell id="5E39NEIYK46jYYsnsLjH-354" value="" style="endArrow=none;dashed=1;html=1;rounded=0;entryX=0.479;entryY=1.035;entryDx=0;entryDy=0;entryPerimeter=0;" edge="1" parent="1" target="5E39NEIYK46jYYsnsLjH-355">
          <mxGeometry width="50" height="50" relative="1" as="geometry">
            <mxPoint x="995" y="1200" as="sourcePoint" />
            <mxPoint x="995" y="292" as="targetPoint" />
          </mxGeometry>
        </mxCell>
        <mxCell id="5E39NEIYK46jYYsnsLjH-355" value="" style="rounded=0;whiteSpace=wrap;html=1;" vertex="1" parent="1">
          <mxGeometry x="985" y="460" width="20" height="70" as="geometry" />
        </mxCell>
        <mxCell id="5E39NEIYK46jYYsnsLjH-356" value="" style="endArrow=none;dashed=1;html=1;rounded=0;entryX=0.479;entryY=1.035;entryDx=0;entryDy=0;entryPerimeter=0;" edge="1" parent="1" target="5E39NEIYK46jYYsnsLjH-357">
          <mxGeometry width="50" height="50" relative="1" as="geometry">
            <mxPoint x="1155" y="1200" as="sourcePoint" />
            <mxPoint x="1155" y="371" as="targetPoint" />
          </mxGeometry>
        </mxCell>
        <mxCell id="5E39NEIYK46jYYsnsLjH-357" value="" style="rounded=0;whiteSpace=wrap;html=1;" vertex="1" parent="1">
          <mxGeometry x="1145" y="460" width="20" height="30" as="geometry" />
        </mxCell>
        <mxCell id="5E39NEIYK46jYYsnsLjH-358" value="" style="endArrow=classic;html=1;rounded=0;exitX=1;exitY=0;exitDx=0;exitDy=0;entryX=0;entryY=0;entryDx=0;entryDy=0;" edge="1" parent="1">
          <mxGeometry width="50" height="50" relative="1" as="geometry">
            <mxPoint x="1005" y="460" as="sourcePoint" />
            <mxPoint x="1145" y="460" as="targetPoint" />
          </mxGeometry>
        </mxCell>
        <mxCell id="5E39NEIYK46jYYsnsLjH-359" value="" style="endArrow=none;dashed=1;html=1;rounded=0;entryX=0.479;entryY=1.035;entryDx=0;entryDy=0;entryPerimeter=0;" edge="1" parent="1">
          <mxGeometry width="50" height="50" relative="1" as="geometry">
            <mxPoint x="1305" y="849.48" as="sourcePoint" />
            <mxPoint x="1306.58" y="851.9299999999998" as="targetPoint" />
          </mxGeometry>
        </mxCell>
        <mxCell id="5E39NEIYK46jYYsnsLjH-360" value="" style="endArrow=none;dashed=1;html=1;rounded=0;" edge="1" parent="1" source="5E39NEIYK46jYYsnsLjH-377">
          <mxGeometry width="50" height="50" relative="1" as="geometry">
            <mxPoint x="1305" y="1100" as="sourcePoint" />
            <mxPoint x="1309" y="400" as="targetPoint" />
          </mxGeometry>
        </mxCell>
        <mxCell id="5E39NEIYK46jYYsnsLjH-361" value="" style="endArrow=none;html=1;rounded=0;entryX=1;entryY=0;entryDx=0;entryDy=0;" edge="1" parent="1" target="5E39NEIYK46jYYsnsLjH-374">
          <mxGeometry width="50" height="50" relative="1" as="geometry">
            <mxPoint x="1536" y="790" as="sourcePoint" />
            <mxPoint x="1456" y="820" as="targetPoint" />
          </mxGeometry>
        </mxCell>
        <mxCell id="5E39NEIYK46jYYsnsLjH-362" value="" style="endArrow=none;html=1;rounded=0;" edge="1" parent="1">
          <mxGeometry width="50" height="50" relative="1" as="geometry">
            <mxPoint x="1536" y="790" as="sourcePoint" />
            <mxPoint x="1536" y="810" as="targetPoint" />
          </mxGeometry>
        </mxCell>
        <mxCell id="5E39NEIYK46jYYsnsLjH-363" value="" style="endArrow=classic;html=1;rounded=0;entryX=1;entryY=0.25;entryDx=0;entryDy=0;" edge="1" parent="1">
          <mxGeometry width="50" height="50" relative="1" as="geometry">
            <mxPoint x="1536" y="812" as="sourcePoint" />
            <mxPoint x="1474.9999999999998" y="809.5" as="targetPoint" />
          </mxGeometry>
        </mxCell>
        <mxCell id="5E39NEIYK46jYYsnsLjH-364" value="" style="endArrow=none;dashed=1;html=1;rounded=0;entryX=0.479;entryY=1.035;entryDx=0;entryDy=0;entryPerimeter=0;" edge="1" parent="1">
          <mxGeometry width="50" height="50" relative="1" as="geometry">
            <mxPoint x="1466" y="765" as="sourcePoint" />
            <mxPoint x="1464.58" y="767.45" as="targetPoint" />
          </mxGeometry>
        </mxCell>
        <mxCell id="5E39NEIYK46jYYsnsLjH-365" value="" style="endArrow=classic;html=1;rounded=0;entryX=0;entryY=0;entryDx=0;entryDy=0;exitX=1;exitY=0;exitDx=0;exitDy=0;" edge="1" parent="1" source="5E39NEIYK46jYYsnsLjH-405" target="5E39NEIYK46jYYsnsLjH-403">
          <mxGeometry width="50" height="50" relative="1" as="geometry">
            <mxPoint x="1681" y="660" as="sourcePoint" />
            <mxPoint x="1535" y="660" as="targetPoint" />
          </mxGeometry>
        </mxCell>
        <mxCell id="5E39NEIYK46jYYsnsLjH-366" value="" style="rounded=0;whiteSpace=wrap;html=1;" vertex="1" parent="1">
          <mxGeometry x="985" y="1120" width="20" height="70" as="geometry" />
        </mxCell>
        <mxCell id="5E39NEIYK46jYYsnsLjH-367" value="1 Ввод и название заказа" style="text;html=1;align=center;verticalAlign=middle;resizable=0;points=[];autosize=1;strokeColor=none;fillColor=none;" vertex="1" parent="1">
          <mxGeometry x="985" y="190" width="170" height="30" as="geometry" />
        </mxCell>
        <mxCell id="5E39NEIYK46jYYsnsLjH-368" value="2 Номер заказа" style="text;html=1;align=center;verticalAlign=middle;resizable=0;points=[];autosize=1;strokeColor=none;fillColor=none;" vertex="1" parent="1">
          <mxGeometry x="1175" y="230" width="110" height="30" as="geometry" />
        </mxCell>
        <mxCell id="5E39NEIYK46jYYsnsLjH-369" value="3 Ввод количество товара" style="text;html=1;align=center;verticalAlign=middle;resizable=0;points=[];autosize=1;strokeColor=none;fillColor=none;" vertex="1" parent="1">
          <mxGeometry x="995" y="310" width="170" height="30" as="geometry" />
        </mxCell>
        <mxCell id="5E39NEIYK46jYYsnsLjH-370" value="4 Подтверждение заказа" style="text;html=1;align=center;verticalAlign=middle;resizable=0;points=[];autosize=1;strokeColor=none;fillColor=none;" vertex="1" parent="1">
          <mxGeometry x="990" y="430" width="160" height="30" as="geometry" />
        </mxCell>
        <mxCell id="5E39NEIYK46jYYsnsLjH-371" value="" style="rounded=0;whiteSpace=wrap;html=1;" vertex="1" parent="1">
          <mxGeometry x="1144" y="530" width="20" height="70" as="geometry" />
        </mxCell>
        <mxCell id="5E39NEIYK46jYYsnsLjH-372" value="" style="endArrow=classic;html=1;rounded=0;exitX=1;exitY=0;exitDx=0;exitDy=0;entryX=0;entryY=0;entryDx=0;entryDy=0;" edge="1" parent="1" target="5E39NEIYK46jYYsnsLjH-377">
          <mxGeometry width="50" height="50" relative="1" as="geometry">
            <mxPoint x="1164" y="530" as="sourcePoint" />
            <mxPoint x="1304" y="530" as="targetPoint" />
          </mxGeometry>
        </mxCell>
        <mxCell id="5E39NEIYK46jYYsnsLjH-373" value="" style="endArrow=none;dashed=1;html=1;rounded=0;entryX=0.479;entryY=1.035;entryDx=0;entryDy=0;entryPerimeter=0;" edge="1" parent="1" target="5E39NEIYK46jYYsnsLjH-374">
          <mxGeometry width="50" height="50" relative="1" as="geometry">
            <mxPoint x="1464.8890147225368" y="765" as="sourcePoint" />
            <mxPoint x="1464.4099999999999" y="180" as="targetPoint" />
          </mxGeometry>
        </mxCell>
        <mxCell id="5E39NEIYK46jYYsnsLjH-374" value="" style="rounded=0;whiteSpace=wrap;html=1;" vertex="1" parent="1">
          <mxGeometry x="1455" y="790" width="20" height="70" as="geometry" />
        </mxCell>
        <mxCell id="5E39NEIYK46jYYsnsLjH-375" value="" style="endArrow=none;dashed=1;html=1;rounded=0;entryX=0.479;entryY=1.035;entryDx=0;entryDy=0;entryPerimeter=0;" edge="1" parent="1" source="5E39NEIYK46jYYsnsLjH-405">
          <mxGeometry width="50" height="50" relative="1" as="geometry">
            <mxPoint x="1305" y="1100" as="sourcePoint" />
            <mxPoint x="1306.58" y="726.05" as="targetPoint" />
            <Array as="points" />
          </mxGeometry>
        </mxCell>
        <mxCell id="5E39NEIYK46jYYsnsLjH-376" value="" style="endArrow=none;dashed=1;html=1;rounded=0;entryX=0.479;entryY=1.035;entryDx=0;entryDy=0;entryPerimeter=0;" edge="1" parent="1" target="5E39NEIYK46jYYsnsLjH-377">
          <mxGeometry width="50" height="50" relative="1" as="geometry">
            <mxPoint x="1307.159113796576" y="695" as="sourcePoint" />
            <mxPoint x="1309" y="452" as="targetPoint" />
          </mxGeometry>
        </mxCell>
        <mxCell id="5E39NEIYK46jYYsnsLjH-377" value="" style="rounded=0;whiteSpace=wrap;html=1;" vertex="1" parent="1">
          <mxGeometry x="1299" y="530" width="20" height="30" as="geometry" />
        </mxCell>
        <mxCell id="5E39NEIYK46jYYsnsLjH-378" value="5 Запрос на проверку заказа" style="text;html=1;align=center;verticalAlign=middle;resizable=0;points=[];autosize=1;strokeColor=none;fillColor=none;" vertex="1" parent="1">
          <mxGeometry x="1137" y="500" width="180" height="30" as="geometry" />
        </mxCell>
        <mxCell id="5E39NEIYK46jYYsnsLjH-379" value="" style="rounded=0;whiteSpace=wrap;html=1;" vertex="1" parent="1">
          <mxGeometry x="1299" y="610" width="20" height="70" as="geometry" />
        </mxCell>
        <mxCell id="5E39NEIYK46jYYsnsLjH-380" value="" style="endArrow=none;html=1;rounded=0;entryX=1;entryY=0;entryDx=0;entryDy=0;" edge="1" parent="1" target="5E39NEIYK46jYYsnsLjH-379">
          <mxGeometry width="50" height="50" relative="1" as="geometry">
            <mxPoint x="1375" y="610" as="sourcePoint" />
            <mxPoint x="1295" y="640" as="targetPoint" />
          </mxGeometry>
        </mxCell>
        <mxCell id="5E39NEIYK46jYYsnsLjH-381" value="" style="endArrow=none;html=1;rounded=0;" edge="1" parent="1">
          <mxGeometry width="50" height="50" relative="1" as="geometry">
            <mxPoint x="1375" y="610" as="sourcePoint" />
            <mxPoint x="1375" y="630" as="targetPoint" />
          </mxGeometry>
        </mxCell>
        <mxCell id="5E39NEIYK46jYYsnsLjH-382" value="" style="endArrow=classic;html=1;rounded=0;entryX=1;entryY=0.25;entryDx=0;entryDy=0;" edge="1" parent="1" target="5E39NEIYK46jYYsnsLjH-379">
          <mxGeometry width="50" height="50" relative="1" as="geometry">
            <mxPoint x="1375" y="630" as="sourcePoint" />
            <mxPoint x="1335" y="630" as="targetPoint" />
          </mxGeometry>
        </mxCell>
        <mxCell id="5E39NEIYK46jYYsnsLjH-383" value="6 Проверка полей" style="text;html=1;align=center;verticalAlign=middle;resizable=0;points=[];autosize=1;strokeColor=none;fillColor=none;" vertex="1" parent="1">
          <mxGeometry x="1273.5" y="575" width="120" height="30" as="geometry" />
        </mxCell>
        <mxCell id="5E39NEIYK46jYYsnsLjH-384" value="7 Запрос необходимого &lt;br&gt;количества товара" style="text;html=1;align=center;verticalAlign=middle;resizable=0;points=[];autosize=1;strokeColor=none;fillColor=none;" vertex="1" parent="1">
          <mxGeometry x="1374" y="655" width="150" height="40" as="geometry" />
        </mxCell>
        <mxCell id="5E39NEIYK46jYYsnsLjH-385" value="8 Проверка наличия вычисления суммы" style="text;html=1;align=center;verticalAlign=middle;resizable=0;points=[];autosize=1;strokeColor=none;fillColor=none;" vertex="1" parent="1">
          <mxGeometry x="1360" y="758" width="250" height="30" as="geometry" />
        </mxCell>
        <mxCell id="5E39NEIYK46jYYsnsLjH-386" value="" style="endArrow=none;dashed=1;html=1;rounded=0;entryX=0.479;entryY=1.035;entryDx=0;entryDy=0;entryPerimeter=0;" edge="1" parent="1" target="5E39NEIYK46jYYsnsLjH-387">
          <mxGeometry width="50" height="50" relative="1" as="geometry">
            <mxPoint x="1463" y="945" as="sourcePoint" />
            <mxPoint x="1465" y="537" as="targetPoint" />
          </mxGeometry>
        </mxCell>
        <mxCell id="5E39NEIYK46jYYsnsLjH-387" value="" style="rounded=0;whiteSpace=wrap;html=1;" vertex="1" parent="1">
          <mxGeometry x="1455" y="875" width="20" height="70" as="geometry" />
        </mxCell>
        <mxCell id="5E39NEIYK46jYYsnsLjH-388" value="" style="endArrow=classic;html=1;rounded=0;entryX=1;entryY=0;entryDx=0;entryDy=0;exitX=0.25;exitY=0;exitDx=0;exitDy=0;" edge="1" parent="1" target="5E39NEIYK46jYYsnsLjH-396">
          <mxGeometry width="50" height="50" relative="1" as="geometry">
            <mxPoint x="1460" y="875" as="sourcePoint" />
            <mxPoint x="1321" y="875" as="targetPoint" />
          </mxGeometry>
        </mxCell>
        <mxCell id="5E39NEIYK46jYYsnsLjH-389" value="9 Сумма заказа" style="text;html=1;align=center;verticalAlign=middle;resizable=0;points=[];autosize=1;strokeColor=none;fillColor=none;" vertex="1" parent="1">
          <mxGeometry x="1340" y="845" width="110" height="30" as="geometry" />
        </mxCell>
        <mxCell id="5E39NEIYK46jYYsnsLjH-390" value="" style="rounded=0;whiteSpace=wrap;html=1;" vertex="1" parent="1">
          <mxGeometry x="1145" y="940" width="20" height="30" as="geometry" />
        </mxCell>
        <mxCell id="5E39NEIYK46jYYsnsLjH-391" value="" style="endArrow=none;dashed=1;html=1;rounded=0;entryX=0.479;entryY=1.035;entryDx=0;entryDy=0;entryPerimeter=0;" edge="1" parent="1" target="5E39NEIYK46jYYsnsLjH-392">
          <mxGeometry width="50" height="50" relative="1" as="geometry">
            <mxPoint x="1307" y="1010" as="sourcePoint" />
            <mxPoint x="1309" y="602" as="targetPoint" />
          </mxGeometry>
        </mxCell>
        <mxCell id="5E39NEIYK46jYYsnsLjH-392" value="" style="rounded=0;whiteSpace=wrap;html=1;" vertex="1" parent="1">
          <mxGeometry x="1299" y="940" width="20" height="70" as="geometry" />
        </mxCell>
        <mxCell id="5E39NEIYK46jYYsnsLjH-393" value="" style="endArrow=classic;html=1;rounded=0;entryX=1;entryY=0;entryDx=0;entryDy=0;exitX=0.25;exitY=0;exitDx=0;exitDy=0;" edge="1" parent="1">
          <mxGeometry width="50" height="50" relative="1" as="geometry">
            <mxPoint x="1304" y="940" as="sourcePoint" />
            <mxPoint x="1165" y="940" as="targetPoint" />
          </mxGeometry>
        </mxCell>
        <mxCell id="5E39NEIYK46jYYsnsLjH-394" value="" style="rounded=0;whiteSpace=wrap;html=1;" vertex="1" parent="1">
          <mxGeometry x="1143" y="1120" width="21" height="30" as="geometry" />
        </mxCell>
        <mxCell id="5E39NEIYK46jYYsnsLjH-395" value="" style="endArrow=none;dashed=1;html=1;rounded=0;entryX=0.479;entryY=1.035;entryDx=0;entryDy=0;entryPerimeter=0;" edge="1" parent="1" target="5E39NEIYK46jYYsnsLjH-396">
          <mxGeometry width="50" height="50" relative="1" as="geometry">
            <mxPoint x="1307" y="1200" as="sourcePoint" />
            <mxPoint x="1307" y="726" as="targetPoint" />
            <Array as="points">
              <mxPoint x="1307" y="910" />
            </Array>
          </mxGeometry>
        </mxCell>
        <mxCell id="5E39NEIYK46jYYsnsLjH-396" value="" style="rounded=0;whiteSpace=wrap;html=1;" vertex="1" parent="1">
          <mxGeometry x="1297" y="875" width="20" height="30" as="geometry" />
        </mxCell>
        <mxCell id="5E39NEIYK46jYYsnsLjH-397" value="10 Сумма заказа" style="text;html=1;align=center;verticalAlign=middle;resizable=0;points=[];autosize=1;strokeColor=none;fillColor=none;" vertex="1" parent="1">
          <mxGeometry x="1170" y="910" width="120" height="30" as="geometry" />
        </mxCell>
        <mxCell id="5E39NEIYK46jYYsnsLjH-398" value="" style="rounded=0;whiteSpace=wrap;html=1;" vertex="1" parent="1">
          <mxGeometry x="985" y="1030" width="20" height="30" as="geometry" />
        </mxCell>
        <mxCell id="5E39NEIYK46jYYsnsLjH-399" value="" style="endArrow=classic;html=1;rounded=0;entryX=1;entryY=0;entryDx=0;entryDy=0;exitX=0;exitY=0;exitDx=0;exitDy=0;" edge="1" parent="1" source="5E39NEIYK46jYYsnsLjH-400" target="5E39NEIYK46jYYsnsLjH-398">
          <mxGeometry width="50" height="50" relative="1" as="geometry">
            <mxPoint x="1144" y="1030" as="sourcePoint" />
            <mxPoint x="1005" y="1030" as="targetPoint" />
          </mxGeometry>
        </mxCell>
        <mxCell id="5E39NEIYK46jYYsnsLjH-400" value="" style="rounded=0;whiteSpace=wrap;html=1;" vertex="1" parent="1">
          <mxGeometry x="1144" y="1028" width="20" height="70" as="geometry" />
        </mxCell>
        <mxCell id="5E39NEIYK46jYYsnsLjH-401" value="11 Заказ принят" style="text;html=1;align=center;verticalAlign=middle;resizable=0;points=[];autosize=1;strokeColor=none;fillColor=none;" vertex="1" parent="1">
          <mxGeometry x="1030" y="998" width="110" height="30" as="geometry" />
        </mxCell>
        <mxCell id="5E39NEIYK46jYYsnsLjH-402" value="" style="endArrow=none;dashed=1;html=1;rounded=0;entryX=0.479;entryY=1.035;entryDx=0;entryDy=0;entryPerimeter=0;" edge="1" parent="1" target="5E39NEIYK46jYYsnsLjH-403">
          <mxGeometry width="50" height="50" relative="1" as="geometry">
            <mxPoint x="1465" y="1200" as="sourcePoint" />
            <mxPoint x="1464.4099999999999" y="180" as="targetPoint" />
          </mxGeometry>
        </mxCell>
        <mxCell id="5E39NEIYK46jYYsnsLjH-403" value="" style="rounded=0;whiteSpace=wrap;html=1;" vertex="1" parent="1">
          <mxGeometry x="1455" y="695" width="20" height="30" as="geometry" />
        </mxCell>
        <mxCell id="5E39NEIYK46jYYsnsLjH-404" value="" style="endArrow=none;dashed=1;html=1;rounded=0;entryX=0.479;entryY=1.035;entryDx=0;entryDy=0;entryPerimeter=0;" edge="1" parent="1" source="5E39NEIYK46jYYsnsLjH-396" target="5E39NEIYK46jYYsnsLjH-405">
          <mxGeometry width="50" height="50" relative="1" as="geometry">
            <mxPoint x="1307" y="875" as="sourcePoint" />
            <mxPoint x="1306.58" y="726.05" as="targetPoint" />
            <Array as="points" />
          </mxGeometry>
        </mxCell>
        <mxCell id="5E39NEIYK46jYYsnsLjH-405" value="" style="rounded=0;whiteSpace=wrap;html=1;" vertex="1" parent="1">
          <mxGeometry x="1297" y="695" width="20" height="70" as="geometry" />
        </mxCell>
        <mxCell id="5E39NEIYK46jYYsnsLjH-406" value="Opt" style="shape=umlFrame;whiteSpace=wrap;html=1;pointerEvents=0;" vertex="1" parent="1">
          <mxGeometry x="930" y="1100" width="300" height="152" as="geometry" />
        </mxCell>
        <mxCell id="5E39NEIYK46jYYsnsLjH-407" value="12 Отмена заказа" style="text;html=1;align=center;verticalAlign=middle;resizable=0;points=[];autosize=1;strokeColor=none;fillColor=none;" vertex="1" parent="1">
          <mxGeometry x="995" y="1100" width="120" height="30" as="geometry" />
        </mxCell>
        <mxCell id="5E39NEIYK46jYYsnsLjH-408" value="" style="endArrow=classic;html=1;rounded=0;entryX=0;entryY=0;entryDx=0;entryDy=0;exitX=1;exitY=0;exitDx=0;exitDy=0;" edge="1" parent="1" source="5E39NEIYK46jYYsnsLjH-366" target="5E39NEIYK46jYYsnsLjH-394">
          <mxGeometry width="50" height="50" relative="1" as="geometry">
            <mxPoint x="1154" y="1038" as="sourcePoint" />
            <mxPoint x="1015" y="1040" as="targetPoint" />
          </mxGeometry>
        </mxCell>
        <mxCell id="5E39NEIYK46jYYsnsLjH-409" value="клиент" style="shape=umlActor;verticalLabelPosition=bottom;verticalAlign=top;html=1;" vertex="1" parent="1">
          <mxGeometry x="230" y="100" width="30" height="60" as="geometry" />
        </mxCell>
        <mxCell id="5E39NEIYK46jYYsnsLjH-410" value="Форма авторизации" style="shape=umlBoundary;whiteSpace=wrap;html=1;" vertex="1" parent="1">
          <mxGeometry x="320" y="100" width="100" height="80" as="geometry" />
        </mxCell>
        <mxCell id="5E39NEIYK46jYYsnsLjH-411" value="Менеджер доступа" style="ellipse;shape=umlControl;whiteSpace=wrap;html=1;" vertex="1" parent="1">
          <mxGeometry x="480" y="100" width="70" height="80" as="geometry" />
        </mxCell>
        <mxCell id="5E39NEIYK46jYYsnsLjH-412" value="БД" style="ellipse;shape=umlEntity;whiteSpace=wrap;html=1;" vertex="1" parent="1">
          <mxGeometry x="620" y="100" width="80" height="80" as="geometry" />
        </mxCell>
        <mxCell id="5E39NEIYK46jYYsnsLjH-413" value="" style="endArrow=none;dashed=1;html=1;rounded=0;" edge="1" parent="1" source="5E39NEIYK46jYYsnsLjH-415" target="5E39NEIYK46jYYsnsLjH-409">
          <mxGeometry width="50" height="50" relative="1" as="geometry">
            <mxPoint x="240" y="580" as="sourcePoint" />
            <mxPoint x="240" y="200" as="targetPoint" />
            <Array as="points" />
          </mxGeometry>
        </mxCell>
        <mxCell id="5E39NEIYK46jYYsnsLjH-414" value="" style="endArrow=none;dashed=1;html=1;rounded=0;" edge="1" parent="1" source="5E39NEIYK46jYYsnsLjH-441" target="5E39NEIYK46jYYsnsLjH-415">
          <mxGeometry width="50" height="50" relative="1" as="geometry">
            <mxPoint x="240" y="580" as="sourcePoint" />
            <mxPoint x="240" y="200" as="targetPoint" />
            <Array as="points">
              <mxPoint x="240" y="260" />
            </Array>
          </mxGeometry>
        </mxCell>
        <mxCell id="5E39NEIYK46jYYsnsLjH-415" value="" style="html=1;points=[[0,0,0,0,5],[0,1,0,0,-5],[1,0,0,0,5],[1,1,0,0,-5]];perimeter=orthogonalPerimeter;outlineConnect=0;targetShapes=umlLifeline;portConstraint=eastwest;newEdgeStyle={&quot;curved&quot;:0,&quot;rounded&quot;:0};" vertex="1" parent="1">
          <mxGeometry x="240" y="220" width="10" height="80" as="geometry" />
        </mxCell>
        <mxCell id="5E39NEIYK46jYYsnsLjH-416" value="" style="endArrow=none;dashed=1;html=1;rounded=0;" edge="1" parent="1" source="5E39NEIYK46jYYsnsLjH-421">
          <mxGeometry width="50" height="50" relative="1" as="geometry">
            <mxPoint x="380" y="580" as="sourcePoint" />
            <mxPoint x="380" y="280" as="targetPoint" />
            <Array as="points">
              <mxPoint x="380" y="200" />
            </Array>
          </mxGeometry>
        </mxCell>
        <mxCell id="5E39NEIYK46jYYsnsLjH-417" value="" style="endArrow=none;dashed=1;html=1;rounded=0;" edge="1" parent="1">
          <mxGeometry width="50" height="50" relative="1" as="geometry">
            <mxPoint x="514.4099999999999" y="220" as="sourcePoint" />
            <mxPoint x="514" y="817.454501065341" as="targetPoint" />
            <Array as="points">
              <mxPoint x="514" y="180" />
            </Array>
          </mxGeometry>
        </mxCell>
        <mxCell id="5E39NEIYK46jYYsnsLjH-418" value="" style="endArrow=none;dashed=1;html=1;rounded=0;" edge="1" parent="1" source="5E39NEIYK46jYYsnsLjH-428">
          <mxGeometry width="50" height="50" relative="1" as="geometry">
            <mxPoint x="660" y="580" as="sourcePoint" />
            <mxPoint x="660" y="800" as="targetPoint" />
            <Array as="points">
              <mxPoint x="660" y="180" />
            </Array>
          </mxGeometry>
        </mxCell>
        <mxCell id="5E39NEIYK46jYYsnsLjH-419" value="" style="endArrow=none;dashed=1;html=1;rounded=0;" edge="1" parent="1">
          <mxGeometry width="50" height="50" relative="1" as="geometry">
            <mxPoint x="514.4099999999999" y="580" as="sourcePoint" />
            <mxPoint x="514.4099999999999" y="350" as="targetPoint" />
            <Array as="points">
              <mxPoint x="514.4099999999999" y="410" />
            </Array>
          </mxGeometry>
        </mxCell>
        <mxCell id="5E39NEIYK46jYYsnsLjH-420" value="" style="endArrow=none;dashed=1;html=1;rounded=0;" edge="1" parent="1" target="5E39NEIYK46jYYsnsLjH-421">
          <mxGeometry width="50" height="50" relative="1" as="geometry">
            <mxPoint x="380" y="823.3333333333335" as="sourcePoint" />
            <mxPoint x="380" y="280" as="targetPoint" />
            <Array as="points" />
          </mxGeometry>
        </mxCell>
        <mxCell id="5E39NEIYK46jYYsnsLjH-421" value="" style="html=1;points=[[0,0,0,0,5],[0,1,0,0,-5],[1,0,0,0,5],[1,1,0,0,-5]];perimeter=orthogonalPerimeter;outlineConnect=0;targetShapes=umlLifeline;portConstraint=eastwest;newEdgeStyle={&quot;curved&quot;:0,&quot;rounded&quot;:0};" vertex="1" parent="1">
          <mxGeometry x="380" y="220" width="10" height="80" as="geometry" />
        </mxCell>
        <mxCell id="5E39NEIYK46jYYsnsLjH-422" value="Ввод данных" style="html=1;verticalAlign=bottom;endArrow=block;curved=0;rounded=0;" edge="1" parent="1">
          <mxGeometry width="80" relative="1" as="geometry">
            <mxPoint x="250" y="260" as="sourcePoint" />
            <mxPoint x="380" y="260" as="targetPoint" />
          </mxGeometry>
        </mxCell>
        <mxCell id="5E39NEIYK46jYYsnsLjH-423" value="Отправка данных &lt;br&gt;" style="html=1;verticalAlign=bottom;endArrow=block;curved=0;rounded=0;" edge="1" parent="1">
          <mxGeometry x="-0.0769" y="9" width="80" relative="1" as="geometry">
            <mxPoint x="390" y="268" as="sourcePoint" />
            <mxPoint x="510" y="268" as="targetPoint" />
            <Array as="points">
              <mxPoint x="440" y="268" />
            </Array>
            <mxPoint as="offset" />
          </mxGeometry>
        </mxCell>
        <mxCell id="5E39NEIYK46jYYsnsLjH-424" value="" style="html=1;points=[[0,0,0,0,5],[0,1,0,0,-5],[1,0,0,0,5],[1,1,0,0,-5]];perimeter=orthogonalPerimeter;outlineConnect=0;targetShapes=umlLifeline;portConstraint=eastwest;newEdgeStyle={&quot;curved&quot;:0,&quot;rounded&quot;:0};" vertex="1" parent="1">
          <mxGeometry x="510" y="210" width="10" height="530" as="geometry" />
        </mxCell>
        <mxCell id="5E39NEIYK46jYYsnsLjH-425" value="Проверка&amp;nbsp;" style="html=1;align=left;spacingLeft=2;endArrow=block;rounded=0;edgeStyle=orthogonalEdgeStyle;curved=0;rounded=0;" edge="1" parent="1" target="5E39NEIYK46jYYsnsLjH-424">
          <mxGeometry relative="1" as="geometry">
            <mxPoint x="530" y="280" as="sourcePoint" />
            <Array as="points">
              <mxPoint x="560" y="280" />
              <mxPoint x="560" y="300" />
            </Array>
            <mxPoint x="530" y="310" as="targetPoint" />
          </mxGeometry>
        </mxCell>
        <mxCell id="5E39NEIYK46jYYsnsLjH-426" value="Регистрация даннх" style="html=1;verticalAlign=bottom;endArrow=block;curved=0;rounded=0;" edge="1" parent="1">
          <mxGeometry x="0.037" y="10" width="80" relative="1" as="geometry">
            <mxPoint x="520" y="340" as="sourcePoint" />
            <mxPoint x="650" y="340" as="targetPoint" />
            <Array as="points">
              <mxPoint x="560" y="340" />
            </Array>
            <mxPoint as="offset" />
          </mxGeometry>
        </mxCell>
        <mxCell id="5E39NEIYK46jYYsnsLjH-427" value="" style="endArrow=none;dashed=1;html=1;rounded=0;" edge="1" parent="1" target="5E39NEIYK46jYYsnsLjH-428">
          <mxGeometry width="50" height="50" relative="1" as="geometry">
            <mxPoint x="660" y="580" as="sourcePoint" />
            <mxPoint x="660" y="280" as="targetPoint" />
            <Array as="points">
              <mxPoint x="660" y="410" />
            </Array>
          </mxGeometry>
        </mxCell>
        <mxCell id="5E39NEIYK46jYYsnsLjH-428" value="" style="html=1;points=[[0,0,0,0,5],[0,1,0,0,-5],[1,0,0,0,5],[1,1,0,0,-5]];perimeter=orthogonalPerimeter;outlineConnect=0;targetShapes=umlLifeline;portConstraint=eastwest;newEdgeStyle={&quot;curved&quot;:0,&quot;rounded&quot;:0};" vertex="1" parent="1">
          <mxGeometry x="655" y="270" width="10" height="430" as="geometry" />
        </mxCell>
        <mxCell id="5E39NEIYK46jYYsnsLjH-429" value="" style="endArrow=none;dashed=1;html=1;rounded=0;" edge="1" parent="1" target="5E39NEIYK46jYYsnsLjH-430">
          <mxGeometry width="50" height="50" relative="1" as="geometry">
            <mxPoint x="380" y="580" as="sourcePoint" />
            <mxPoint x="380" y="300" as="targetPoint" />
            <Array as="points">
              <mxPoint x="380" y="410" />
            </Array>
          </mxGeometry>
        </mxCell>
        <mxCell id="5E39NEIYK46jYYsnsLjH-430" value="" style="html=1;points=[[0,0,0,0,5],[0,1,0,0,-5],[1,0,0,0,5],[1,1,0,0,-5]];perimeter=orthogonalPerimeter;outlineConnect=0;targetShapes=umlLifeline;portConstraint=eastwest;newEdgeStyle={&quot;curved&quot;:0,&quot;rounded&quot;:0};" vertex="1" parent="1">
          <mxGeometry x="370" y="330" width="10" height="420" as="geometry" />
        </mxCell>
        <mxCell id="5E39NEIYK46jYYsnsLjH-431" value="" style="endArrow=none;dashed=1;html=1;rounded=0;" edge="1" parent="1" source="5E39NEIYK46jYYsnsLjH-441">
          <mxGeometry width="50" height="50" relative="1" as="geometry">
            <mxPoint x="240" y="720" as="sourcePoint" />
            <mxPoint x="240" y="510" as="targetPoint" />
            <Array as="points" />
          </mxGeometry>
        </mxCell>
        <mxCell id="5E39NEIYK46jYYsnsLjH-432" value="Alt" style="shape=umlFrame;whiteSpace=wrap;html=1;pointerEvents=0;" vertex="1" parent="1">
          <mxGeometry x="120" y="310" width="600" height="310" as="geometry" />
        </mxCell>
        <mxCell id="5E39NEIYK46jYYsnsLjH-433" value="result() true" style="html=1;verticalAlign=bottom;endArrow=open;dashed=1;endSize=8;curved=0;rounded=0;" edge="1" parent="1" target="5E39NEIYK46jYYsnsLjH-430">
          <mxGeometry relative="1" as="geometry">
            <mxPoint x="500" y="379.3800000000001" as="sourcePoint" />
            <mxPoint x="420" y="379.3800000000001" as="targetPoint" />
          </mxGeometry>
        </mxCell>
        <mxCell id="5E39NEIYK46jYYsnsLjH-434" value="ошибка (Форма заполнена&lt;br&gt;неверно)" style="html=1;verticalAlign=bottom;endArrow=open;dashed=1;endSize=8;curved=0;rounded=0;" edge="1" parent="1" target="5E39NEIYK46jYYsnsLjH-430">
          <mxGeometry x="-0.0769" y="-20" relative="1" as="geometry">
            <mxPoint x="510" y="490" as="sourcePoint" />
            <mxPoint x="380" y="500" as="targetPoint" />
            <Array as="points">
              <mxPoint x="450" y="490" />
            </Array>
            <mxPoint as="offset" />
          </mxGeometry>
        </mxCell>
        <mxCell id="5E39NEIYK46jYYsnsLjH-435" value="ошибка(Форма заполнена&lt;br&gt;неверно)" style="html=1;verticalAlign=bottom;endArrow=open;dashed=1;endSize=8;curved=0;rounded=0;entryX=1;entryY=0.842;entryDx=0;entryDy=0;entryPerimeter=0;" edge="1" parent="1">
          <mxGeometry x="-0.0769" y="-20" relative="1" as="geometry">
            <mxPoint x="375" y="503.3800000000001" as="sourcePoint" />
            <mxPoint x="245" y="503.3800000000001" as="targetPoint" />
            <Array as="points">
              <mxPoint x="315" y="503.3800000000001" />
            </Array>
            <mxPoint as="offset" />
          </mxGeometry>
        </mxCell>
        <mxCell id="5E39NEIYK46jYYsnsLjH-436" value="Форма верна" style="text;html=1;align=center;verticalAlign=middle;resizable=0;points=[];autosize=1;strokeColor=none;fillColor=none;" vertex="1" parent="1">
          <mxGeometry x="245" y="360" width="100" height="30" as="geometry" />
        </mxCell>
        <mxCell id="5E39NEIYK46jYYsnsLjH-437" value="Регистрация прошла&amp;nbsp;" style="html=1;verticalAlign=bottom;endArrow=open;dashed=1;endSize=8;curved=0;rounded=0;" edge="1" parent="1" target="5E39NEIYK46jYYsnsLjH-424">
          <mxGeometry relative="1" as="geometry">
            <mxPoint x="650" y="650" as="sourcePoint" />
            <mxPoint x="570" y="650" as="targetPoint" />
          </mxGeometry>
        </mxCell>
        <mxCell id="5E39NEIYK46jYYsnsLjH-438" value="Регистрация прошла&amp;nbsp;" style="html=1;verticalAlign=bottom;endArrow=open;dashed=1;endSize=8;curved=0;rounded=0;" edge="1" parent="1">
          <mxGeometry relative="1" as="geometry">
            <mxPoint x="510" y="660" as="sourcePoint" />
            <mxPoint x="380" y="660" as="targetPoint" />
          </mxGeometry>
        </mxCell>
        <mxCell id="5E39NEIYK46jYYsnsLjH-439" value="Регистрация прошла&amp;nbsp;" style="html=1;verticalAlign=bottom;endArrow=open;dashed=1;endSize=8;curved=0;rounded=0;" edge="1" parent="1" source="5E39NEIYK46jYYsnsLjH-430">
          <mxGeometry relative="1" as="geometry">
            <mxPoint x="375" y="666" as="sourcePoint" />
            <mxPoint x="245" y="666" as="targetPoint" />
          </mxGeometry>
        </mxCell>
        <mxCell id="5E39NEIYK46jYYsnsLjH-440" value="" style="endArrow=none;dashed=1;html=1;rounded=0;" edge="1" parent="1" target="5E39NEIYK46jYYsnsLjH-441">
          <mxGeometry width="50" height="50" relative="1" as="geometry">
            <mxPoint x="240" y="820" as="sourcePoint" />
            <mxPoint x="240" y="510" as="targetPoint" />
            <Array as="points" />
          </mxGeometry>
        </mxCell>
        <mxCell id="5E39NEIYK46jYYsnsLjH-441" value="" style="html=1;points=[[0,0,0,0,5],[0,1,0,0,-5],[1,0,0,0,5],[1,1,0,0,-5]];perimeter=orthogonalPerimeter;outlineConnect=0;targetShapes=umlLifeline;portConstraint=eastwest;newEdgeStyle={&quot;curved&quot;:0,&quot;rounded&quot;:0};" vertex="1" parent="1">
          <mxGeometry x="235" y="400" width="10" height="300" as="geometry" />
        </mxCell>
      </root>
    </mxGraphModel>
  </diagram>
</mxfile>
